<svg width="20" height="20" viewBox="0 0 20 20" fill="none" xmlns="http://www.w3.org/2000/svg">
<path d="M18.1685 17.3875L17.4998 7.275C17.4698 6.84 17.2761 6.43251 16.9578 6.1345C16.6395 5.8365 16.2202 5.67009 15.7842 5.66875H13.9842V4.76562C13.9842 3.7089 13.5644 2.69546 12.8172 1.94825C12.07 1.20103 11.0565 0.78125 9.9998 0.78125C8.94308 0.78125 7.92964 1.20103 7.18242 1.94825C6.43521 2.69546 6.01542 3.7089 6.01542 4.76562V5.66875H4.21542C3.77939 5.67009 3.36005 5.8365 3.04175 6.1345C2.72345 6.43251 2.52981 6.84 2.4998 7.275L1.83105 17.3875C1.8152 17.6221 1.84774 17.8574 1.92664 18.0789C2.00554 18.3003 2.12911 18.5032 2.2897 18.6749C2.45028 18.8467 2.64444 18.9835 2.86013 19.0771C3.07583 19.1706 3.30844 19.2189 3.54355 19.2188H16.456C16.6912 19.2189 16.9238 19.1706 17.1395 19.0771C17.3552 18.9835 17.5493 18.8467 17.7099 18.6749C17.8705 18.5032 17.9941 18.3003 18.073 18.0789C18.1519 17.8574 18.1844 17.6221 18.1685 17.3875ZM6.95292 4.76562C6.95292 3.95754 7.27393 3.18256 7.84533 2.61116C8.41673 2.03976 9.19172 1.71875 9.9998 1.71875C10.8079 1.71875 11.5829 2.03976 12.1543 2.61116C12.7257 3.18256 13.0467 3.95754 13.0467 4.76562V5.66875H6.95292V4.76562ZM9.9998 12.3438C8.94333 12.3429 7.93037 11.9229 7.18334 11.1758C6.4363 10.4288 6.01625 9.41584 6.01542 8.35938C6.01542 8.23505 6.06481 8.11583 6.15272 8.02792C6.24063 7.94001 6.35985 7.89062 6.48417 7.89062C6.60849 7.89062 6.72772 7.94001 6.81563 8.02792C6.90354 8.11583 6.95292 8.23505 6.95292 8.35938C6.95292 9.16746 7.27393 9.94244 7.84533 10.5138C8.41673 11.0852 9.19172 11.4062 9.9998 11.4062C10.8079 11.4062 11.5829 11.0852 12.1543 10.5138C12.7257 9.94244 13.0467 9.16746 13.0467 8.35938C13.0467 8.23505 13.0961 8.11583 13.184 8.02792C13.2719 7.94001 13.3911 7.89062 13.5154 7.89062C13.6397 7.89062 13.759 7.94001 13.8469 8.02792C13.9348 8.11583 13.9842 8.23505 13.9842 8.35938C13.9833 9.41584 13.5633 10.4288 12.8163 11.1758C12.0692 11.9229 11.0563 12.3429 9.9998 12.3438Z" fill="white"/>
</svg>
