<svg width="1550" height="407" viewBox="0 0 1550 407" fill="none" xmlns="http://www.w3.org/2000/svg">
<g clip-path="url(#clip0_433_4605)">
<rect width="1550" height="407" rx="33.2143" fill="#FF7380"/>
<path d="M1220.7 443.565C1342.58 217.693 1640.18 325.714 1662.53 435.912C1663.19 439.143 1660.6 441.98 1657.31 441.98H1622.02C1620.65 441.98 1619.3 441.446 1618.28 440.532C1461.65 300.325 1307.12 343.351 1301.73 446.093C1301.57 449.146 1299.11 451.667 1296.05 451.667L1225.46 451.667C1221.34 451.667 1218.74 447.193 1220.7 443.565Z" fill="#FFCCD1" fill-opacity="0.3"/>
<path d="M88.4093 -170.291C223.08 48.1972 -19.273 251.922 -125.881 216.177C-129.006 215.129 -130.17 211.471 -128.522 208.616L-110.878 178.056C-110.193 176.869 -109.057 175.968 -107.754 175.541C91.983 110 131.988 -45.3417 45.7039 -101.378C43.1399 -103.043 42.1879 -106.437 43.7166 -109.085L79.0123 -170.219C81.0732 -173.789 86.2466 -173.8 88.4093 -170.291Z" fill="#FFCCD1" fill-opacity="0.3"/>
<path d="M1815.27 127.869C1596.78 262.54 1393.06 20.187 1428.81 -86.4207C1429.85 -89.5461 1433.51 -90.7104 1436.37 -89.0622L1466.93 -71.4185C1468.11 -70.7331 1469.01 -69.5968 1469.44 -68.2943C1534.98 131.443 1690.32 171.448 1746.36 85.1639C1748.03 82.5998 1751.42 81.6479 1754.07 83.1765L1815.2 118.472C1818.77 120.533 1818.78 125.707 1815.27 127.869Z" fill="#FFCCD1" fill-opacity="0.3"/>
</g>
<defs>
<clipPath id="clip0_433_4605">
<rect width="1550" height="407" rx="33.2143" fill="white"/>
</clipPath>
</defs>
</svg>
