<svg width="1728" height="1296" viewBox="0 0 1728 1296" fill="none" xmlns="http://www.w3.org/2000/svg">
<g clip-path="url(#clip0_454_4540)">
<mask id="mask0_454_4540" style="mask-type:luminance" maskUnits="userSpaceOnUse" x="0" y="0" width="1728" height="1296">
<path d="M0 0H1728V1296H0V0Z" fill="white"/>
</mask>
<g mask="url(#mask0_454_4540)">
<path fill-rule="evenodd" clip-rule="evenodd" d="M-38.8804 -41.0396H1753.49V1333.58H-38.8804V-41.0396Z" fill="#FFD4DE"/>
</g>
<mask id="mask1_454_4540" style="mask-type:luminance" maskUnits="userSpaceOnUse" x="0" y="0" width="1728" height="1296">
<path d="M0 0H1728V1296H0V0Z" fill="white"/>
</mask>
<g mask="url(#mask1_454_4540)">
<path fill-rule="evenodd" clip-rule="evenodd" d="M50.1712 -293.657C4.30541 -283.725 20.3506 -239.27 58.3306 -226.094C96.3106 -212.918 173.856 -242.959 227.34 -232.191C280.823 -221.423 300.504 -183.578 368.534 -163.642C436.563 -143.707 557.921 -119.911 631.776 -113.67C705.632 -107.429 761.13 -133.978 807.604 -126.545C854.076 -119.111 818.422 -85.1598 896.247 -71.37C974.073 -57.5802 1178.47 -61.8948 1263.93 -45.6912C1349.39 -29.4894 1347.7 7.62485 1399.21 23.9832C1450.72 40.3416 1517.63 49.3452 1568.64 51.0822C1619.66 52.8192 1643.32 23.5728 1701.87 34.2918C1760.43 45.0108 1857.52 113.902 1908.86 113.364C1960.21 112.826 1959.08 59.6952 1910.83 32.0994C1862.59 4.49823 1749.04 -16.749 1667.63 -24.6096C1586.22 -32.4702 1493.01 -0.957581 1427.43 -14.5764C1361.85 -28.1952 1372.85 -84.2706 1294.56 -102.085C1216.27 -119.9 1047.36 -106.429 974.221 -117.706C901.08 -128.983 952.499 -156.058 862.848 -168.647C773.197 -181.237 545.513 -175.079 443.666 -192.209C341.816 -209.338 327.081 -252.812 260.715 -269.921C194.353 -287.032 96.037 -303.59 50.1712 -293.657Z" fill="#FFC8D5"/>
</g>
<mask id="mask2_454_4540" style="mask-type:luminance" maskUnits="userSpaceOnUse" x="0" y="0" width="1728" height="1296">
<path d="M0 0H1728V1296H0V0Z" fill="white"/>
</mask>
<g mask="url(#mask2_454_4540)">
<path fill-rule="evenodd" clip-rule="evenodd" d="M8.44009 -122.53C30.5639 -133.162 81.2285 -136.953 117.135 -132.062C153.041 -127.172 168.395 -101.635 217.78 -94.0177C267.165 -86.3983 356.434 -96.2875 409.387 -86.9761C462.339 -77.6665 483.219 -48.0673 530.499 -39.0313C577.78 -29.9971 632.961 -43.3567 688.412 -33.6529C743.861 -23.9491 789.619 10.2473 859.99 18.6353C930.361 27.0233 1032.55 2.9213 1105.18 16.0253C1177.81 29.1293 1219.68 79.1783 1284.8 95.2739C1349.91 111.371 1432.42 100.233 1489.56 111.045C1546.7 121.858 1563.07 150.28 1624.26 159.507C1685.46 168.736 1797.82 150.383 1851.74 165.659C1905.65 180.936 1929.87 213.953 1922.98 244.139C1916.09 274.327 1867.93 245.27 1834.05 243.167C1800.16 241.065 1767.78 242.246 1719.91 231.539C1672.05 220.833 1610.91 192.859 1548.33 179.251C1485.76 165.643 1416.21 167.326 1345.7 150.154C1275.19 132.984 1209 91.5227 1127.23 76.7015C1045.46 61.8803 953.224 74.5379 860.09 62.1341C766.956 49.7303 646.787 20.0141 570.164 2.5127C493.542 -14.9905 470.432 -32.7691 400.563 -42.8347C330.692 -52.9003 216.869 -50.4127 153.288 -57.5371C89.7083 -64.6597 46.9385 -73.4365 20.1509 -85.4569C-6.63671 -97.4773 -13.6855 -111.899 8.44009 -122.53Z" fill="#FFC8D5"/>
</g>
<mask id="mask3_454_4540" style="mask-type:luminance" maskUnits="userSpaceOnUse" x="0" y="0" width="1728" height="1296">
<path d="M0 0H1728V1296H0V0Z" fill="white"/>
</mask>
<g mask="url(#mask3_454_4540)">
<path fill-rule="evenodd" clip-rule="evenodd" d="M-13.4609 8.98166C48.4051 7.45706 227.455 34.1007 299.498 48.6843C371.541 63.2679 284.916 77.1477 415.45 95.8028C545.984 114.458 935.621 135.219 1077.77 159.91C1219.93 184.599 1174.95 223.201 1259.09 242.33C1343.22 261.459 1469.31 258.285 1575.25 273.02C1681.2 287.755 1833.14 306.568 1894.16 330.652C1955.19 354.736 1976.44 397.656 1889.29 396.959C1802.15 396.264 1574.16 351.597 1441.8 327.043C1309.44 302.49 1209.01 275.11 1095.61 249.724C982.204 224.341 859.071 187.511 761.389 174.736C663.706 161.962 594.466 188.026 513.275 173.566C432.082 159.107 374.904 109.029 282.398 89.4308C189.891 69.8307 23.6947 73.4865 -37.0139 56.9787C-97.7243 40.4709 -75.3269 10.5063 -13.4609 8.98166Z" fill="#FFC8D5"/>
</g>
<mask id="mask4_454_4540" style="mask-type:luminance" maskUnits="userSpaceOnUse" x="0" y="0" width="1728" height="1296">
<path d="M0 0H1728V1296H0V0Z" fill="white"/>
</mask>
<g mask="url(#mask4_454_4540)">
<path fill-rule="evenodd" clip-rule="evenodd" d="M-27.9557 159.426C36.7597 151.947 206.606 162.567 296.64 181.525C386.674 200.482 427.639 254.983 503.669 271.37C579.699 287.757 666.522 275.262 743.44 277.832C820.359 280.402 911.131 276.09 965.171 286.792C1019.21 297.495 915.853 313.24 1058.5 340.233C1201.15 367.225 1678.37 415.962 1813.62 447.34C1948.87 478.719 1942.21 518.996 1799.72 512.203C1657.23 505.41 1174.32 440.03 1020.52 409.525C866.715 379.021 997.583 350.116 888.343 331.445C779.103 312.774 492.727 318.667 379.573 299.972C266.42 281.277 293.555 234.783 221.051 221.199C148.549 207.614 10.5895 234.092 -43.0613 220.783C-96.7121 207.474 -92.6729 166.905 -27.9557 159.426Z" fill="#FFC8D5"/>
</g>
<mask id="mask5_454_4540" style="mask-type:luminance" maskUnits="userSpaceOnUse" x="0" y="0" width="1728" height="1296">
<path d="M0 0H1728V1296H0V0Z" fill="white"/>
</mask>
<g mask="url(#mask5_454_4540)">
<path fill-rule="evenodd" clip-rule="evenodd" d="M-52.4446 279.376C8.35219 273.996 118.447 297.176 234.108 321.48C349.769 345.785 513.724 404.714 640.505 424.991C767.284 445.268 876.705 424.881 990.538 442.463C1104.37 460.046 1178.38 505.699 1319.25 529.823C1460.12 553.946 1740.12 567.214 1833.21 586.764C1926.3 606.314 1955.87 643.302 1815.5 634.039C1675.14 624.778 1210.36 559.269 1031.05 533.837C851.744 508.403 849.217 497.714 739.964 481.482C630.709 465.251 511.879 458.598 375.81 436.491C239.74 414.383 8.08939 379.739 -75.9166 348.921C-159.923 318.101 -113.243 284.758 -52.4446 279.376Z" fill="#FFC8D5"/>
</g>
<mask id="mask6_454_4540" style="mask-type:luminance" maskUnits="userSpaceOnUse" x="0" y="0" width="1728" height="1296">
<path d="M0 0H1728V1296H0V0Z" fill="white"/>
</mask>
<g mask="url(#mask6_454_4540)">
<path fill-rule="evenodd" clip-rule="evenodd" d="M-74.1492 491.229C-171.986 453.386 -138.101 418.187 -69.7068 416.571C-1.31042 414.954 154.305 456.099 255.224 483.448C356.143 510.797 445.705 570.964 534.35 580.27C622.994 589.576 645.133 530.404 767.486 537.219C889.839 544.034 1150.63 596.463 1257.38 620.541C1364.12 644.62 1310.87 667.982 1404.72 680.964C1498.58 693.945 1729.37 675.796 1812.71 697.351C1896.04 718.906 1902.74 777.325 1845.18 794.891C1787.61 812.457 1690.83 784.012 1589.22 765.549C1487.61 747.087 1425.04 708.284 1236.6 684.304C1048.15 660.323 680.737 654.333 461.515 622.041C242.293 589.749 23.6898 529.071 -74.1492 491.229Z" fill="#FFC8D5"/>
</g>
<mask id="mask7_454_4540" style="mask-type:luminance" maskUnits="userSpaceOnUse" x="0" y="0" width="1728" height="1296">
<path d="M0 0H1728V1296H0V0Z" fill="white"/>
</mask>
<g mask="url(#mask7_454_4540)">
<path fill-rule="evenodd" clip-rule="evenodd" d="M-83.4082 589.284C-281.795 576.844 -174.188 644.565 -114.237 671.731C-54.2842 698.897 81.1172 703.125 186.358 711.525C291.6 719.926 387.373 700.601 516.33 722.061C645.289 743.52 815.366 816.473 954.483 839.347C1093.6 862.223 1209.37 831.539 1345.71 858.438C1482.06 885.337 1677.44 984.593 1763.82 999.021C1850.2 1013.45 1957.11 985.347 1813.07 936.5C1669.03 887.654 1322.28 799.898 1005.78 741.953C689.289 684.011 114.979 601.724 -83.4082 589.284Z" fill="#FFC8D5"/>
</g>
<mask id="mask8_454_4540" style="mask-type:luminance" maskUnits="userSpaceOnUse" x="0" y="0" width="1728" height="1296">
<path d="M0 0H1728V1296H0V0Z" fill="white"/>
</mask>
<g mask="url(#mask8_454_4540)">
<path fill-rule="evenodd" clip-rule="evenodd" d="M-112.797 779.261C-186.64 788.245 -219.083 828.356 -141.235 846.768C-63.3889 865.181 156.528 851.747 260.316 867.51C364.104 883.274 411.95 927.756 475.348 940.415C538.745 953.073 535.417 925.864 635.56 942.435C735.705 959.006 949.293 1019.25 1073.44 1039.38C1197.58 1059.52 1267.14 1043.72 1378.4 1062.9C1489.66 1082.08 1665.34 1148.44 1738.27 1154C1811.2 1159.56 1864.34 1124.2 1739.61 1090.44C1614.88 1056.69 1224.86 1005.71 1042.44 965.685C860.027 925.657 737.629 867.135 646.717 850.628C555.804 834.12 542.423 871.221 506.711 868.404C471.001 865.589 474.023 841.271 442.447 834.521C410.872 827.771 353.567 835.099 322.058 828.932C290.547 822.765 330.604 806.655 257.276 798.28C183.949 789.906 -38.9539 770.277 -112.797 779.261Z" fill="#FFC8D5"/>
</g>
<mask id="mask9_454_4540" style="mask-type:luminance" maskUnits="userSpaceOnUse" x="0" y="0" width="1728" height="1296">
<path d="M0 0H1728V1296H0V0Z" fill="white"/>
</mask>
<g mask="url(#mask9_454_4540)">
<path fill-rule="evenodd" clip-rule="evenodd" d="M-158.057 918.459C-135.931 907.826 -85.2664 904.036 -49.36 908.926C-13.4536 913.817 1.90042 939.352 51.2852 946.971C100.67 954.59 189.939 944.701 242.89 954.013C295.842 963.322 316.722 992.921 364.003 1001.96C411.283 1010.99 466.466 997.632 521.915 1007.34C577.364 1017.04 623.122 1051.24 693.495 1059.62C763.866 1068.01 866.053 1043.91 938.685 1057.01C1011.32 1070.12 1053.19 1120.17 1118.3 1136.26C1183.41 1152.36 1265.93 1141.22 1323.07 1152.03C1380.21 1162.85 1396.58 1191.27 1457.77 1200.5C1518.96 1209.72 1631.32 1191.37 1685.24 1206.65C1739.16 1221.92 1763.38 1254.94 1756.49 1285.13C1749.6 1315.32 1701.44 1286.26 1667.55 1284.16C1633.67 1282.06 1601.28 1283.24 1553.42 1272.53C1505.56 1261.82 1444.42 1233.85 1381.84 1220.24C1319.27 1206.63 1249.72 1208.32 1179.21 1191.15C1108.7 1173.97 1042.51 1132.51 960.739 1117.69C878.967 1102.87 786.731 1115.53 693.597 1103.12C600.463 1090.72 480.294 1061 403.671 1043.5C327.049 1026 303.939 1008.22 234.07 998.156C164.199 988.09 50.3762 990.578 -13.2052 983.453C-76.7866 976.329 -119.555 967.552 -146.342 955.534C-173.132 943.511 -180.18 929.09 -158.057 918.459Z" fill="#FFC8D5"/>
</g>
<mask id="mask10_454_4540" style="mask-type:luminance" maskUnits="userSpaceOnUse" x="0" y="0" width="1728" height="1296">
<path d="M0 0H1728V1296H0V0Z" fill="white"/>
</mask>
<g mask="url(#mask10_454_4540)">
<path fill-rule="evenodd" clip-rule="evenodd" d="M-161.062 1027.05C-206.927 1036.99 -190.882 1081.44 -152.902 1094.62C-114.922 1107.79 -37.3765 1077.75 16.1069 1088.52C69.5903 1099.29 89.2715 1137.13 157.301 1157.07C225.33 1177 346.688 1200.8 420.544 1207.04C494.399 1213.28 549.897 1186.73 596.371 1194.16C642.844 1201.6 607.189 1235.55 685.016 1249.34C762.841 1263.13 967.24 1258.82 1052.7 1275.02C1138.16 1291.22 1136.47 1328.33 1187.98 1344.69C1239.49 1361.05 1306.4 1370.05 1357.41 1371.79C1408.43 1373.53 1432.09 1344.28 1490.64 1355C1549.2 1365.72 1646.29 1434.61 1697.63 1434.07C1748.98 1433.53 1747.85 1380.4 1699.6 1352.81C1651.35 1325.21 1537.81 1303.96 1456.4 1296.1C1374.99 1288.24 1281.78 1319.76 1216.2 1306.14C1150.62 1292.52 1161.62 1236.44 1083.33 1218.63C1005.04 1200.81 836.131 1214.28 762.99 1203.01C689.849 1191.73 741.268 1164.65 651.617 1152.06C561.966 1139.47 334.282 1145.63 232.435 1128.5C130.587 1111.37 115.85 1067.9 49.4861 1050.79C-16.8799 1033.68 -115.196 1017.12 -161.062 1027.05Z" fill="#FFC8D5"/>
</g>
<mask id="mask11_454_4540" style="mask-type:luminance" maskUnits="userSpaceOnUse" x="0" y="0" width="1728" height="1296">
<path d="M0 0H1728V1296H0V0Z" fill="white"/>
</mask>
<g mask="url(#mask11_454_4540)">
<path fill-rule="evenodd" clip-rule="evenodd" d="M-193.477 1194.32C-128.761 1186.84 41.0832 1197.46 131.119 1216.42C221.153 1235.38 262.118 1289.88 338.148 1306.26C414.178 1322.65 501.001 1310.16 577.919 1312.73C654.836 1315.3 745.61 1310.98 799.65 1321.69C853.69 1332.39 750.332 1348.13 892.982 1375.13C1035.63 1402.12 1512.85 1450.85 1648.1 1482.23C1783.35 1513.61 1776.69 1553.89 1634.2 1547.1C1491.71 1540.3 1008.8 1474.92 854.996 1444.42C701.195 1413.91 832.064 1385.01 722.824 1366.34C613.584 1347.67 327.208 1353.56 214.054 1334.87C100.899 1316.17 128.036 1269.68 55.5318 1256.09C-16.9722 1242.51 -154.931 1268.99 -208.58 1255.68C-262.233 1242.37 -258.192 1201.8 -193.477 1194.32Z" fill="#FFC8D5"/>
</g>
<mask id="mask12_454_4540" style="mask-type:luminance" maskUnits="userSpaceOnUse" x="0" y="0" width="1728" height="1296">
<path d="M0 0H1728V1296H0V0Z" fill="white"/>
</mask>
<g mask="url(#mask12_454_4540)">
<path fill-rule="evenodd" clip-rule="evenodd" d="M121.138 -24.8311H126.079V321.201H121.138V-24.8311Z" fill="white"/>
</g>
<mask id="mask13_454_4540" style="mask-type:luminance" maskUnits="userSpaceOnUse" x="0" y="0" width="1728" height="1296">
<path d="M0 0H1728V1296H0V0Z" fill="white"/>
</mask>
<g mask="url(#mask13_454_4540)">
<path fill-rule="evenodd" clip-rule="evenodd" d="M163.561 288.378C192.291 300.285 148.399 359.368 123.831 373.041C101.778 359.031 53.5358 301.044 84.1016 288.378C94.0394 284.259 110.599 294.739 123.831 312.541C137.063 294.739 153.623 284.259 163.561 288.378Z" fill="#FF7992"/>
</g>
<mask id="mask14_454_4540" style="mask-type:luminance" maskUnits="userSpaceOnUse" x="0" y="0" width="1728" height="1296">
<path d="M0 0H1728V1296H0V0Z" fill="white"/>
</mask>
<g mask="url(#mask14_454_4540)">
<path fill-rule="evenodd" clip-rule="evenodd" d="M263.331 -13.3921H268.272V495.072H263.331V-13.3921Z" fill="white"/>
</g>
<mask id="mask15_454_4540" style="mask-type:luminance" maskUnits="userSpaceOnUse" x="0" y="0" width="1728" height="1296">
<path d="M0 0H1728V1296H0V0Z" fill="white"/>
</mask>
<g mask="url(#mask15_454_4540)">
<path fill-rule="evenodd" clip-rule="evenodd" d="M305.753 462.249C334.483 474.156 290.592 533.238 266.024 546.912C243.97 532.903 195.728 474.916 226.294 462.249C236.232 458.131 252.792 468.611 266.024 486.413C279.255 468.611 295.815 458.131 305.753 462.249Z" fill="#FF7992"/>
</g>
<mask id="mask16_454_4540" style="mask-type:luminance" maskUnits="userSpaceOnUse" x="0" y="0" width="1728" height="1296">
<path d="M0 0H1728V1296H0V0Z" fill="white"/>
</mask>
<g mask="url(#mask16_454_4540)">
<path fill-rule="evenodd" clip-rule="evenodd" d="M400.88 -121.248H405.821V224.784H400.88V-121.248Z" fill="white"/>
</g>
<mask id="mask17_454_4540" style="mask-type:luminance" maskUnits="userSpaceOnUse" x="0" y="0" width="1728" height="1296">
<path d="M0 0H1728V1296H0V0Z" fill="white"/>
</mask>
<g mask="url(#mask17_454_4540)">
<path fill-rule="evenodd" clip-rule="evenodd" d="M432.274 203.522C453.073 212.142 421.297 254.916 403.51 264.816C387.544 254.673 352.618 212.693 374.748 203.522C381.942 200.541 393.93 208.127 403.51 221.016C413.091 208.128 425.079 200.541 432.274 203.522Z" fill="#FF7992"/>
</g>
<mask id="mask18_454_4540" style="mask-type:luminance" maskUnits="userSpaceOnUse" x="0" y="0" width="1728" height="1296">
<path d="M0 0H1728V1296H0V0Z" fill="white"/>
</mask>
<g mask="url(#mask18_454_4540)">
<path fill-rule="evenodd" clip-rule="evenodd" d="M1582.8 -26.6772H1577.86V319.355H1582.8V-26.6772Z" fill="white"/>
</g>
<mask id="mask19_454_4540" style="mask-type:luminance" maskUnits="userSpaceOnUse" x="0" y="0" width="1728" height="1296">
<path d="M0 0H1728V1296H0V0Z" fill="white"/>
</mask>
<g mask="url(#mask19_454_4540)">
<path fill-rule="evenodd" clip-rule="evenodd" d="M1540.38 286.531C1511.65 298.438 1555.54 357.52 1580.11 371.194C1602.16 357.185 1650.41 299.198 1619.84 286.531C1609.9 282.413 1593.34 292.892 1580.11 310.694C1566.88 292.892 1550.32 282.413 1540.38 286.531Z" fill="#FF7992"/>
</g>
<mask id="mask20_454_4540" style="mask-type:luminance" maskUnits="userSpaceOnUse" x="0" y="0" width="1728" height="1296">
<path d="M0 0H1728V1296H0V0Z" fill="white"/>
</mask>
<g mask="url(#mask20_454_4540)">
<path fill-rule="evenodd" clip-rule="evenodd" d="M1440.61 -15.2383H1435.67V493.226H1440.61V-15.2383Z" fill="white"/>
</g>
<mask id="mask21_454_4540" style="mask-type:luminance" maskUnits="userSpaceOnUse" x="0" y="0" width="1728" height="1296">
<path d="M0 0H1728V1296H0V0Z" fill="white"/>
</mask>
<g mask="url(#mask21_454_4540)">
<path fill-rule="evenodd" clip-rule="evenodd" d="M1398.19 460.404C1369.46 472.311 1413.35 531.392 1437.92 545.067C1459.97 531.057 1508.21 473.07 1477.65 460.404C1467.71 456.285 1451.15 466.765 1437.92 484.567C1424.69 466.763 1408.13 456.285 1398.19 460.404Z" fill="#FF7992"/>
</g>
<mask id="mask22_454_4540" style="mask-type:luminance" maskUnits="userSpaceOnUse" x="0" y="0" width="1728" height="1296">
<path d="M0 0H1728V1296H0V0Z" fill="white"/>
</mask>
<g mask="url(#mask22_454_4540)">
<path fill-rule="evenodd" clip-rule="evenodd" d="M1303.06 -123.095H1298.12V222.937H1303.06V-123.095Z" fill="white"/>
</g>
<mask id="mask23_454_4540" style="mask-type:luminance" maskUnits="userSpaceOnUse" x="0" y="0" width="1728" height="1296">
<path d="M0 0H1728V1296H0V0Z" fill="white"/>
</mask>
<g mask="url(#mask23_454_4540)">
<path fill-rule="evenodd" clip-rule="evenodd" d="M1271.67 201.677C1250.87 210.297 1282.64 253.071 1300.43 262.971C1316.4 252.828 1351.32 210.848 1329.19 201.677C1322 198.695 1310.01 206.282 1300.43 219.171C1290.85 206.282 1278.86 198.695 1271.67 201.677Z" fill="#FF7992"/>
</g>
<mask id="mask24_454_4540" style="mask-type:luminance" maskUnits="userSpaceOnUse" x="0" y="0" width="1728" height="1296">
<path d="M0 0H1728V1296H0V0Z" fill="white"/>
</mask>
<g mask="url(#mask24_454_4540)">
<path fill-rule="evenodd" clip-rule="evenodd" d="M0.00037384 963.344C67.9972 963.344 123.12 1018.47 123.12 1086.46C123.12 1154.46 67.9972 1209.58 0.00037384 1209.58C-67.9964 1209.58 -123.12 1154.46 -123.12 1086.46C-123.12 1018.47 -67.9964 963.344 0.00037384 963.344Z" fill="white"/>
</g>
<mask id="mask25_454_4540" style="mask-type:luminance" maskUnits="userSpaceOnUse" x="0" y="0" width="1728" height="1296">
<path d="M0 0H1728V1296H0V0Z" fill="white"/>
</mask>
<g mask="url(#mask25_454_4540)">
<path fill-rule="evenodd" clip-rule="evenodd" d="M179.521 998.301C272.227 998.301 347.378 1073.45 347.378 1166.16C347.378 1258.86 272.225 1334.02 179.521 1334.02C86.8177 1334.02 11.6641 1258.86 11.6641 1166.16C11.6641 1073.45 86.8177 998.301 179.521 998.301Z" fill="white"/>
</g>
<mask id="mask26_454_4540" style="mask-type:luminance" maskUnits="userSpaceOnUse" x="0" y="0" width="1728" height="1296">
<path d="M0 0H1728V1296H0V0Z" fill="white"/>
</mask>
<g mask="url(#mask26_454_4540)">
<path fill-rule="evenodd" clip-rule="evenodd" d="M362.965 1172.88C430.962 1172.88 486.085 1228 486.085 1296C486.085 1364 430.962 1419.12 362.965 1419.12C294.968 1419.12 239.845 1364 239.845 1296C239.845 1228 294.968 1172.88 362.965 1172.88Z" fill="white"/>
</g>
<mask id="mask27_454_4540" style="mask-type:luminance" maskUnits="userSpaceOnUse" x="0" y="0" width="1728" height="1296">
<path d="M0 0H1728V1296H0V0Z" fill="white"/>
</mask>
<g mask="url(#mask27_454_4540)">
<path fill-rule="evenodd" clip-rule="evenodd" d="M7.62939e-06 877.687C36.1386 877.687 65.4336 906.984 65.4336 943.121C65.4336 979.259 36.1368 1008.55 7.62939e-06 1008.55C-36.1386 1008.55 -65.4336 979.257 -65.4336 943.121C-65.4336 906.984 -36.1386 877.687 7.62939e-06 877.687Z" fill="white"/>
</g>
<mask id="mask28_454_4540" style="mask-type:luminance" maskUnits="userSpaceOnUse" x="0" y="0" width="1728" height="1296">
<path d="M0 0H1728V1296H0V0Z" fill="white"/>
</mask>
<g mask="url(#mask28_454_4540)">
<path fill-rule="evenodd" clip-rule="evenodd" d="M30.1229 1159.32C98.1197 1159.32 153.243 1214.44 153.243 1282.44C153.243 1350.43 98.1197 1405.56 30.1229 1405.56C-37.8739 1405.56 -92.9971 1350.43 -92.9971 1282.44C-92.9971 1214.44 -37.8739 1159.32 30.1229 1159.32Z" fill="white"/>
</g>
<mask id="mask29_454_4540" style="mask-type:luminance" maskUnits="userSpaceOnUse" x="0" y="0" width="1728" height="1296">
<path d="M0 0H1728V1296H0V0Z" fill="white"/>
</mask>
<g mask="url(#mask29_454_4540)">
<path fill-rule="evenodd" clip-rule="evenodd" d="M514.927 1214.32C551.066 1214.32 580.361 1243.62 580.361 1279.75C580.361 1315.89 551.064 1345.19 514.927 1345.19C478.789 1345.19 449.494 1315.89 449.494 1279.75C449.494 1243.62 478.79 1214.32 514.927 1214.32Z" fill="white"/>
</g>
<mask id="mask30_454_4540" style="mask-type:luminance" maskUnits="userSpaceOnUse" x="0" y="0" width="1728" height="1296">
<path d="M0 0H1728V1296H0V0Z" fill="white"/>
</mask>
<g mask="url(#mask30_454_4540)">
<path fill-rule="evenodd" clip-rule="evenodd" d="M481.248 1156.9C494.847 1156.9 505.873 1167.92 505.873 1181.52C505.873 1195.12 494.847 1206.14 481.248 1206.14C467.649 1206.14 456.625 1195.12 456.625 1181.52C456.625 1167.92 467.649 1156.9 481.248 1156.9Z" fill="white"/>
</g>
<mask id="mask31_454_4540" style="mask-type:luminance" maskUnits="userSpaceOnUse" x="0" y="0" width="1728" height="1296">
<path d="M0 0H1728V1296H0V0Z" fill="white"/>
</mask>
<g mask="url(#mask31_454_4540)">
<path fill-rule="evenodd" clip-rule="evenodd" d="M623.192 1271.38C636.791 1271.38 647.816 1282.4 647.816 1296C647.816 1309.6 636.791 1320.62 623.192 1320.62C609.593 1320.62 598.568 1309.6 598.568 1296C598.568 1282.4 609.593 1271.38 623.192 1271.38Z" fill="white"/>
</g>
<mask id="mask32_454_4540" style="mask-type:luminance" maskUnits="userSpaceOnUse" x="0" y="0" width="1728" height="1296">
<path d="M0 0H1728V1296H0V0Z" fill="white"/>
</mask>
<g mask="url(#mask32_454_4540)">
<path fill-rule="evenodd" clip-rule="evenodd" d="M148.81 976.48C162.409 976.48 173.434 987.505 173.434 1001.1C173.434 1014.7 162.409 1025.73 148.81 1025.73C135.211 1025.73 124.186 1014.7 124.186 1001.1C124.186 987.505 135.211 976.48 148.81 976.48Z" fill="white"/>
</g>
<mask id="mask33_454_4540" style="mask-type:luminance" maskUnits="userSpaceOnUse" x="0" y="0" width="1728" height="1296">
<path d="M0 0H1728V1296H0V0Z" fill="white"/>
</mask>
<g mask="url(#mask33_454_4540)">
<path fill-rule="evenodd" clip-rule="evenodd" d="M11.6636 805.68C25.2626 805.68 36.2876 816.705 36.2876 830.304C36.2876 843.903 25.2626 854.928 11.6636 854.928C-1.93545 854.928 -12.9604 843.903 -12.9604 830.304C-12.9604 816.705 -1.93545 805.68 11.6636 805.68Z" fill="white"/>
</g>
<mask id="mask34_454_4540" style="mask-type:luminance" maskUnits="userSpaceOnUse" x="0" y="0" width="1728" height="1296">
<path d="M0 0H1728V1296H0V0Z" fill="white"/>
</mask>
<g mask="url(#mask34_454_4540)">
<path fill-rule="evenodd" clip-rule="evenodd" d="M1725.99 929.212C1657.99 929.212 1602.87 984.336 1602.87 1052.33C1602.87 1120.33 1657.99 1175.45 1725.99 1175.45C1793.99 1175.45 1849.11 1120.33 1849.11 1052.33C1849.11 984.336 1793.99 929.212 1725.99 929.212Z" fill="white"/>
</g>
<mask id="mask35_454_4540" style="mask-type:luminance" maskUnits="userSpaceOnUse" x="0" y="0" width="1728" height="1296">
<path d="M0 0H1728V1296H0V0Z" fill="white"/>
</mask>
<g mask="url(#mask35_454_4540)">
<path fill-rule="evenodd" clip-rule="evenodd" d="M1519.61 1036.46C1441.74 1036.46 1378.61 1099.59 1378.61 1177.46C1378.61 1255.33 1441.74 1318.46 1519.61 1318.46C1597.48 1318.46 1660.61 1255.33 1660.61 1177.46C1660.61 1099.59 1597.48 1036.46 1519.61 1036.46Z" fill="white"/>
</g>
<mask id="mask36_454_4540" style="mask-type:luminance" maskUnits="userSpaceOnUse" x="0" y="0" width="1728" height="1296">
<path d="M0 0H1728V1296H0V0Z" fill="white"/>
</mask>
<g mask="url(#mask36_454_4540)">
<path fill-rule="evenodd" clip-rule="evenodd" d="M1363.02 1138.75C1295.03 1138.75 1239.9 1193.87 1239.9 1261.87C1239.9 1329.87 1295.03 1384.99 1363.02 1384.99C1431.02 1384.99 1486.14 1329.87 1486.14 1261.87C1486.14 1193.87 1431.02 1138.75 1363.02 1138.75Z" fill="white"/>
</g>
<mask id="mask37_454_4540" style="mask-type:luminance" maskUnits="userSpaceOnUse" x="0" y="0" width="1728" height="1296">
<path d="M0 0H1728V1296H0V0Z" fill="white"/>
</mask>
<g mask="url(#mask37_454_4540)">
<path fill-rule="evenodd" clip-rule="evenodd" d="M1725.99 843.556C1689.85 843.556 1660.56 872.852 1660.56 908.989C1660.56 945.128 1689.85 974.423 1725.99 974.423C1762.13 974.423 1791.42 945.126 1791.42 908.989C1791.42 872.852 1762.13 843.556 1725.99 843.556Z" fill="white"/>
</g>
<mask id="mask38_454_4540" style="mask-type:luminance" maskUnits="userSpaceOnUse" x="0" y="0" width="1728" height="1296">
<path d="M0 0H1728V1296H0V0Z" fill="white"/>
</mask>
<g mask="url(#mask38_454_4540)">
<path fill-rule="evenodd" clip-rule="evenodd" d="M1695.87 1125.18C1627.87 1125.18 1572.75 1180.31 1572.75 1248.3C1572.75 1316.3 1627.87 1371.42 1695.87 1371.42C1763.87 1371.42 1818.99 1316.3 1818.99 1248.3C1818.99 1180.31 1763.87 1125.18 1695.87 1125.18Z" fill="white"/>
</g>
<mask id="mask39_454_4540" style="mask-type:luminance" maskUnits="userSpaceOnUse" x="0" y="0" width="1728" height="1296">
<path d="M0 0H1728V1296H0V0Z" fill="white"/>
</mask>
<g mask="url(#mask39_454_4540)">
<path fill-rule="evenodd" clip-rule="evenodd" d="M1211.06 1180.19C1174.92 1180.19 1145.63 1209.49 1145.63 1245.62C1145.63 1281.76 1174.93 1311.06 1211.06 1311.06C1247.2 1311.06 1276.5 1281.76 1276.5 1245.62C1276.5 1209.49 1247.2 1180.19 1211.06 1180.19Z" fill="white"/>
</g>
<path fill-rule="evenodd" clip-rule="evenodd" d="M1244.74 1122.76C1231.14 1122.76 1220.12 1133.79 1220.12 1147.39C1220.12 1160.99 1231.14 1172.01 1244.74 1172.01C1258.34 1172.01 1269.37 1160.99 1269.37 1147.39C1269.37 1133.79 1258.34 1122.76 1244.74 1122.76Z" fill="white"/>
<path fill-rule="evenodd" clip-rule="evenodd" d="M1102.8 1237.24C1089.2 1237.24 1078.17 1248.27 1078.17 1261.87C1078.17 1275.47 1089.2 1286.49 1102.8 1286.49C1116.4 1286.49 1127.42 1275.47 1127.42 1261.87C1127.42 1248.27 1116.4 1237.24 1102.8 1237.24Z" fill="white"/>
<mask id="mask40_454_4540" style="mask-type:luminance" maskUnits="userSpaceOnUse" x="0" y="0" width="1728" height="1296">
<path d="M0 0H1728V1296H0V0Z" fill="white"/>
</mask>
<g mask="url(#mask40_454_4540)">
<path fill-rule="evenodd" clip-rule="evenodd" d="M1541.38 933.552C1527.78 933.552 1516.75 944.577 1516.75 958.176C1516.75 971.775 1527.78 982.8 1541.38 982.8C1554.98 982.8 1566 971.775 1566 958.176C1566 944.577 1554.98 933.552 1541.38 933.552Z" fill="white"/>
</g>
<mask id="mask41_454_4540" style="mask-type:luminance" maskUnits="userSpaceOnUse" x="0" y="0" width="1728" height="1296">
<path d="M0 0H1728V1296H0V0Z" fill="white"/>
</mask>
<g mask="url(#mask41_454_4540)">
<path fill-rule="evenodd" clip-rule="evenodd" d="M1714.33 771.549C1700.73 771.549 1689.7 782.574 1689.7 796.173C1689.7 809.772 1700.73 820.797 1714.33 820.797C1727.93 820.797 1738.95 809.772 1738.95 796.173C1738.95 782.574 1727.93 771.549 1714.33 771.549Z" fill="white"/>
</g>
<path fill-rule="evenodd" clip-rule="evenodd" d="M1580.03 959.067C1543.89 959.067 1514.59 988.364 1514.59 1024.5C1514.59 1060.64 1543.89 1089.93 1580.03 1089.93C1616.17 1089.93 1645.46 1060.64 1645.46 1024.5C1645.46 988.364 1616.16 959.067 1580.03 959.067Z" fill="white"/>
<path fill-rule="evenodd" clip-rule="evenodd" d="M541.477 684.369C546.899 686.615 538.617 697.763 533.982 700.342C529.82 697.698 520.72 686.759 526.487 684.369C528.362 683.591 531.485 685.569 533.982 688.928C536.479 685.569 539.602 683.591 541.477 684.369Z" fill="white"/>
<path fill-rule="evenodd" clip-rule="evenodd" d="M716.259 972.01C721.681 974.257 713.399 985.404 708.764 987.984C704.603 985.339 695.502 974.401 701.269 972.01C703.145 971.233 706.268 973.211 708.764 976.57C711.261 973.211 714.386 971.233 716.259 972.01Z" fill="white"/>
<path fill-rule="evenodd" clip-rule="evenodd" d="M1056.62 711.605C1064.95 715.054 1052.23 732.168 1045.12 736.128C1038.73 732.071 1024.75 715.273 1033.61 711.605C1036.49 710.412 1041.28 713.448 1045.12 718.603C1048.95 713.448 1053.74 710.412 1056.62 711.605Z" fill="white"/>
<path fill-rule="evenodd" clip-rule="evenodd" d="M1179.31 928.469C1187.63 931.918 1174.92 949.032 1167.8 952.992C1161.42 948.935 1147.44 932.138 1156.3 928.469C1159.17 927.276 1163.97 930.312 1167.8 935.468C1171.64 930.312 1176.43 927.276 1179.31 928.469Z" fill="white"/>
<path fill-rule="evenodd" clip-rule="evenodd" d="M315.295 952.589C323.617 956.038 310.903 973.152 303.786 977.112C297.398 973.055 283.424 956.257 292.279 952.589C295.157 951.396 299.954 954.432 303.786 959.587C307.62 954.43 312.415 951.396 315.295 952.589Z" fill="white"/>
<path fill-rule="evenodd" clip-rule="evenodd" d="M1355.14 385.013C1363.46 388.462 1350.75 405.576 1343.63 409.536C1337.24 405.479 1323.27 388.682 1332.12 385.013C1335 383.82 1339.8 386.856 1343.63 392.012C1347.46 386.856 1352.26 383.82 1355.14 385.013Z" fill="white"/>
<path fill-rule="evenodd" clip-rule="evenodd" d="M1522.32 788.069C1530.64 791.518 1517.93 808.632 1510.81 812.592C1504.42 808.535 1490.45 791.737 1499.3 788.069C1502.18 786.875 1506.98 789.912 1510.81 795.067C1514.65 789.912 1519.44 786.875 1522.32 788.069Z" fill="white"/>
<path fill-rule="evenodd" clip-rule="evenodd" d="M1667.09 516.682C1672.51 518.929 1664.23 530.076 1659.6 532.656C1655.43 530.011 1646.33 519.073 1652.1 516.682C1653.98 515.905 1657.1 517.883 1659.6 521.242C1662.09 517.883 1665.22 515.905 1667.09 516.682Z" fill="white"/>
<path fill-rule="evenodd" clip-rule="evenodd" d="M823 426.866C828.421 429.113 820.139 440.26 815.504 442.84C811.343 440.195 802.242 429.257 808.009 426.866C809.885 426.089 813.008 428.067 815.504 431.426C818.001 428.067 821.126 426.089 823 426.866Z" fill="white"/>
<path fill-rule="evenodd" clip-rule="evenodd" d="M393.556 336.971C398.977 339.217 390.696 350.365 386.061 352.944C381.899 350.3 372.798 339.361 378.565 336.971C380.441 336.193 383.564 338.171 386.061 341.53C388.557 338.171 391.682 336.193 393.556 336.971Z" fill="white"/>
<path fill-rule="evenodd" clip-rule="evenodd" d="M112.273 520.661C120.595 524.11 107.881 541.224 100.764 545.184C94.3759 541.127 80.4025 524.33 89.2567 520.661C92.1349 519.468 96.9319 522.504 100.764 527.66C104.598 522.504 109.395 519.468 112.273 520.661Z" fill="white"/>
<path fill-rule="evenodd" clip-rule="evenodd" d="M638.116 160.792C646.437 164.241 633.724 181.355 626.607 185.315C620.219 181.258 606.245 164.46 615.099 160.792C617.978 159.599 622.775 162.635 626.607 167.79C630.441 162.635 635.238 159.6 638.116 160.792Z" fill="white"/>
<path fill-rule="evenodd" clip-rule="evenodd" d="M1155.55 82.6133C1163.87 86.0621 1151.16 103.176 1144.04 107.136C1137.66 103.079 1123.68 86.2817 1132.54 82.6133C1135.42 81.4199 1140.21 84.4565 1144.04 89.6117C1147.88 84.4565 1152.68 81.4199 1155.55 82.6133Z" fill="white"/>
<path fill-rule="evenodd" clip-rule="evenodd" d="M1120.9 341.453C1126.32 343.7 1118.04 354.847 1113.41 357.427C1109.25 354.782 1100.15 343.844 1105.91 341.453C1107.79 340.676 1110.91 342.654 1113.41 346.013C1115.9 342.654 1119.03 340.676 1120.9 341.453Z" fill="white"/>
<path fill-rule="evenodd" clip-rule="evenodd" d="M1646.36 88.1384C1651.78 90.3848 1643.5 101.532 1638.86 104.112C1634.7 101.467 1625.6 90.5288 1631.37 88.1384C1633.24 87.3608 1636.36 89.339 1638.86 92.6978C1641.36 89.339 1644.48 87.3608 1646.36 88.1384Z" fill="white"/>
<path fill-rule="evenodd" clip-rule="evenodd" d="M224.644 101.099C230.066 103.345 221.784 114.493 217.149 117.072C212.987 114.428 203.887 103.489 209.654 101.099C211.529 100.321 214.652 102.299 217.149 105.658C219.646 102.299 222.77 100.321 224.644 101.099Z" fill="white"/>
<path fill-rule="evenodd" clip-rule="evenodd" d="M850.562 1160.88C858.883 1164.33 846.17 1181.45 839.054 1185.41C832.666 1181.35 818.692 1164.55 827.547 1160.88C830.425 1159.69 835.222 1162.73 839.054 1167.88C842.886 1162.73 847.682 1159.69 850.562 1160.88Z" fill="white"/>
</g>
<defs>
<clipPath id="clip0_454_4540">
<rect width="1728" height="1296" fill="white"/>
</clipPath>
</defs>
</svg>
