<svg width="370" height="524" viewBox="0 0 370 524" fill="none" xmlns="http://www.w3.org/2000/svg">
<rect x="9" y="1" width="360" height="523" rx="20" fill="#C9C2D6"/>
<g clip-path="url(#clip0_416_3194)">
<path d="M514.106 29.6813C514.724 28.8209 513.991 26.5544 513.607 27.8164C513.224 29.0784 512.039 29.0031 512.039 29.0031C512.039 29.0031 513.882 26.6722 512.639 26.8336C511.395 26.9949 510.986 30.3351 510.986 30.3351C510.535 28.5924 512.222 26.9292 511.711 26.4393C511.199 25.9496 510.423 27.9301 510.423 27.9301C510.61 27.3609 510.541 26.8218 510.399 26.4155C510.28 26.4859 510.152 26.5463 510.016 26.5949C509.832 27.2568 508.875 27.8127 508.527 27.9959C509.038 27.7106 509.248 27.225 509.26 26.7553C508.906 26.7905 508.516 26.7836 508.095 26.7454C508.141 27.0762 508.208 27.3418 508.208 27.3418C508.208 27.3418 508.132 27.0548 508.015 26.738C507.69 26.7057 507.347 26.6553 506.987 26.5908C506.701 27.318 506.449 28.3713 506.449 28.3713C506.449 28.3713 506.663 27.1797 506.637 26.5249C506.498 26.4973 506.355 26.4674 506.212 26.4365C506.077 26.8822 506.115 27.6177 506.115 27.6177C506.115 27.6177 505.918 26.737 505.786 26.3421C505.73 26.3291 505.673 26.3159 505.616 26.3025C505.493 26.6427 505.292 27.4882 505.169 28.0252C505.268 27.54 505.393 26.7809 505.342 26.238C505.157 26.1937 504.969 26.1481 504.779 26.1009C504.494 26.8013 504.238 28.1102 504.238 28.1102C504.303 27.2556 504.031 26.3738 503.835 25.864C503.815 25.859 503.796 25.8541 503.776 25.8492C504.101 27.4239 502.679 28.827 502.679 28.827C502.849 28.487 502.939 28.1751 502.973 27.8914C502.427 28.74 501.741 29.3063 502.084 28.8301C502.702 27.9697 501.968 25.7032 501.584 26.9652C501.201 28.2272 500.016 28.1519 500.016 28.1519C500.016 28.1519 501.859 25.8211 500.616 25.9824C499.373 26.1438 498.963 29.4839 498.963 29.4839C498.513 27.741 500.2 26.078 499.688 25.5881C499.177 25.0984 498.401 27.0792 498.401 27.0792C498.915 25.5131 497.492 24.1712 497.957 25.2111C498.35 26.0918 496.943 26.9141 496.504 27.1447C497.694 26.481 497.253 24.7308 496.482 24.6261C495.684 24.5179 496.185 26.4908 496.185 26.4908C496.185 26.4908 495.769 24.9014 495.369 25.0736C494.969 25.2458 494.426 27.5199 494.426 27.5199C494.426 27.5199 494.85 25.1615 494.434 25.257C494.017 25.3526 494.093 26.7663 494.093 26.7663C494.093 26.7663 493.758 25.2729 493.67 25.3022C493.58 25.3315 493.301 26.4981 493.147 27.1738C493.283 26.5044 493.469 25.313 493.175 24.889C492.787 24.3308 492.215 27.2588 492.215 27.2588C492.283 26.3738 491.989 25.4582 491.792 24.9585C491.777 24.9616 491.762 24.9644 491.747 24.9675C491.9 25.6578 491.714 26.3161 491.454 26.8403C491.496 28.1676 490.901 29.7732 491.028 28.9981C491.089 28.6245 490.956 28.2076 490.759 27.8662C490.696 27.937 490.657 27.9756 490.657 27.9756C490.684 27.9223 490.708 27.8697 490.731 27.8176C490.334 27.1643 489.713 26.8226 489.833 27.6871C490.017 29.0145 488.96 29.6719 488.96 29.6719C488.96 29.6719 489.603 26.5282 488.592 27.4264C487.581 28.3246 488.592 31.4683 488.592 31.4683C487.489 30.2334 488.27 27.7633 487.627 27.6511C486.983 27.5388 487.121 29.7281 487.121 29.7281C486.926 28.058 485.145 27.7635 485.972 28.3809C486.673 28.9041 485.791 30.4742 485.505 30.9421C486.125 29.881 485.509 28.8567 484.875 28.7207C484.661 28.9405 484.45 29.1471 484.242 29.3405C484.358 29.8871 484.961 30.5702 484.961 30.5702C484.961 30.5702 484.107 29.6234 483.755 29.7769C483.726 29.8023 483.697 29.8283 483.667 29.8531C483.407 30.2771 483.858 32.5351 483.858 32.5351C483.858 32.5351 483.261 30.2336 482.939 30.5704C482.617 30.9073 483.261 32.0861 483.261 32.0861C483.261 32.0861 482.361 30.9962 482.296 31.0757C482.231 31.1554 482.466 32.3366 482.608 33.0164C482.476 32.4519 482.22 31.5383 481.882 31.1631C481.742 31.2497 481.608 31.3293 481.48 31.4019C481.468 32.142 481.836 33.6582 481.836 33.6582C481.523 32.8247 480.863 32.198 480.494 31.8952C480.481 31.9007 480.468 31.906 480.456 31.9114C481.465 33.0622 480.779 35.2299 480.779 35.2299C480.806 33.9689 480.253 33.4349 479.779 33.2082C479.425 35.5282 478.484 36.363 477.441 36.593C477.852 37.4895 478.217 38.4046 478.502 39.1755C479.361 38.7543 480.116 38.4243 480.116 38.4243C480.354 38.5002 480.478 38.9587 480.527 39.1918C480.541 39.2601 480.5 39.327 480.443 39.3296C479.946 39.3518 479.338 39.5622 478.742 39.8378C479.013 40.6056 479.171 41.1148 479.171 41.1148C479.171 41.1148 478.302 41.6446 478.296 41.4668C478.284 41.1032 478.209 40.6546 478.094 40.1627C477.089 40.7028 476.257 41.3058 476.257 41.3058C476.257 41.3058 475.925 41.345 476.047 40.7476C476.104 40.47 476.986 39.949 477.914 39.4705C477.649 38.5272 477.287 37.5066 476.964 36.659C475.818 36.7318 474.64 36.2548 474.037 36.3323C472.713 36.5027 470.063 41.783 470.69 45.1897C471.318 48.5964 468.18 47.4892 468.668 50.0441C469.157 52.599 465.74 54.3026 465.74 54.3026C465.74 54.3026 466.158 55.5801 465.322 57.9647C465.245 58.1834 465.19 58.366 465.153 58.5205C465.212 58.6143 465.268 58.7119 465.322 58.8164C466.019 60.1792 467.204 56.2613 467.344 54.3026C467.483 52.3436 471.318 54.9839 473.131 56.5169C474.944 58.0498 472.573 58.9016 473.549 59.583C474.526 60.2644 477.663 59.2422 478.569 60.6902C479.476 62.1381 480.731 62.3083 481.847 62.5639C482.962 62.8193 482.683 66.226 482.195 67.1629C481.707 68.0997 484.635 68.6109 484.775 66.9076C484.914 65.2042 483.659 64.6932 483.659 64.6932C484.062 63.8324 484.756 64.7031 485.162 65.991C485.319 66.4869 485.433 67.0445 485.472 67.5889C485.612 69.5479 483.38 68.6109 481.986 68.6109C480.591 68.6109 481.01 66.8224 481.498 65.0338C481.986 63.2453 480.103 62.9897 478.011 63.6711C475.92 64.3524 476.756 60.2644 473.688 60.4348C474.014 60.8039 472.712 60.9741 473.642 61.3715C474.572 61.769 474.386 63.0749 474.386 63.0749C474.386 63.0749 474.758 62.6206 475.455 62.9045C476.152 63.1884 475.966 65.0053 475.501 65.2892C475.037 65.5731 475.641 66.2545 475.641 66.2545C475.641 66.2545 474.246 65.4029 475.037 64.9486C475.827 64.4945 475.548 63.6996 475.13 63.3021C474.711 62.9047 474.665 63.5861 474.432 64.2672C474.2 64.9486 473.363 64.4943 472.387 63.7563C471.411 63.0182 471.736 64.1537 471.736 64.1537C471.736 64.1537 470.76 62.3935 472.015 63.0749C473.27 63.7563 472.898 63.8698 473.549 63.7563C474.2 63.6427 474.153 62.0529 472.898 61.5419C471.643 61.0309 472.108 60.009 472.108 60.009C472.108 60.009 472.126 60.0098 472.156 60.0117C471.643 59.2762 472.389 57.7478 470.76 56.6023C468.459 54.9841 465.39 63.5546 465.042 63.5861C464.878 63.601 464.718 63.6006 464.561 63.5937C463.702 64.4786 462.43 65.2497 461.112 65.8767C460.919 67.003 461.395 68.5143 461.821 69.5697C462.272 69.7891 462.572 70.1694 462.393 70.8254C461.905 72.614 463.997 72.7842 463.578 72.6992C463.16 72.614 463.648 69.7183 464.694 70.144C465.74 70.5698 467.204 70.3144 465.6 69.1221C463.997 67.9297 467.622 66.3968 468.947 66.5672C469.949 66.6958 470.272 66.2895 470.371 66.0835C470.239 66.4284 469.785 67.4479 469.086 67.1633C468.25 66.8227 465.391 68.5261 467.901 69.2075C470.411 69.8888 467.134 71.9328 465.321 71.0812C463.508 70.2294 464.903 73.6361 466.437 73.5511C467.971 73.4661 470.551 75.2545 470.272 75.9359C469.993 76.6172 471.666 76.7876 473.131 78.1502C474.595 79.5127 470.62 79.8535 471.875 79.0018C473.131 78.1502 470.342 76.7022 470.342 76.7022L468.738 76.8726C468.738 76.8726 468.18 73.5511 465.67 74.0621C463.841 74.4346 462.866 73.5873 462.47 73.0994C462.562 73.2489 462.672 73.3998 462.811 73.5511C464.066 74.9139 463.927 77.4688 463.369 78.1502C462.811 78.8316 465.74 78.6612 468.389 80.5349C471.039 82.4086 468.25 83.8564 466.367 84.9636C464.485 86.0707 470.481 86.6669 473.758 86.4113C477.035 86.1557 476.756 88.0295 476.547 88.7108C476.338 89.3922 476.756 89.818 477.593 90.6698C478.43 91.5215 475.85 92.6287 475.85 92.6287L476.966 90.755C476.966 90.755 475.641 90.9254 475.99 89.6478C476.338 88.3702 476.547 87.2631 472.155 87.4335C469.157 87.5498 465.967 86.3578 464.795 85.4533C464.26 86.1177 465.004 87.9102 465.6 88.711C466.298 89.6478 465.67 89.733 465.043 90.755C464.415 91.7769 465.809 91.8621 465.112 91.8621C464.415 91.8621 464.206 90.9254 464.206 90.9254C464.206 90.9254 465.252 88.3702 464.276 87.3483C463.828 86.8792 463.881 86.2498 464.067 85.7048C463.636 85.4775 463.052 84.755 462.393 85.5597C461.814 86.2667 461.208 86.4869 460.845 86.5542C461.016 86.4495 461.253 86.2004 461.556 85.6449C462.254 84.3674 462.602 83.0048 463.439 83.9416C463.719 84.2552 464.061 84.5006 464.393 84.6901C464.451 84.6259 464.548 84.5734 464.694 84.5376C466.437 84.1118 467.692 83.0898 467.274 81.5567C466.856 80.0237 464.903 79.6829 463.021 79.5125C461.138 79.3421 460.72 76.6168 460.859 72.2734C460.952 69.3861 458.334 68.0804 456.568 67.5287C456.294 67.598 456.068 67.6478 455.909 67.6743C455.646 67.718 455.364 67.6724 455.067 67.5734L455.211 67.7597C455.211 67.7597 455.56 70.7406 454.514 70.1444C453.468 69.5483 453.747 71.5072 454.375 73.2957C455.002 75.0843 454.793 78.7464 454.305 77.2986C453.817 75.8508 452.98 76.1062 452.98 76.1062C452.98 76.1062 453.398 73.6363 452.004 74.3177C450.609 74.9991 451.028 78.576 451.028 78.576C451.028 78.576 452.562 79.5979 453.677 82.664C454.793 85.7301 453.468 85.5597 453.468 85.5597C453.468 85.5597 452.911 87.7741 453.468 89.0516C454.026 90.329 456.815 90.5846 457.931 89.733C459.046 88.8814 456.955 87.0927 456.955 87.0927C456.955 87.0927 458.837 87.6037 459.046 89.5626C459.256 91.5215 457.094 90.5846 456.536 92.2027C455.978 93.8209 457.024 95.6946 457.652 96.376C458.279 97.0574 458.837 95.6094 458.837 95.6094C458.837 95.6094 458.977 96.9722 458.14 97.6534C457.303 98.3347 455.769 96.2054 455.769 96.2054C455.769 96.2054 457.164 93.3949 454.444 91.6064C451.725 89.8178 452.004 88.7958 452.632 84.9634C453.134 81.8921 451.265 82.7014 450.215 81.0416C449.731 81.6576 448.989 82.5993 448.588 83.0896C447.96 83.8562 448.866 85.2188 450.052 86.2407C451.237 87.2627 449.773 88.966 448.936 89.3918C448.099 89.8176 448.239 91.0952 447.681 90.4138C447.123 89.7324 449.215 88.6252 449.424 87.6885C449.633 86.7517 448.448 86.7517 448.099 84.9632C447.751 83.1746 447.402 83.9412 445.798 83.5154C444.195 83.0896 446.077 79.6829 446.008 80.3643C445.938 81.0457 445.938 81.9825 447.193 82.238C448.031 82.4086 449.056 80.87 449.727 79.7782C449.692 79.6156 449.659 79.4453 449.633 79.2573C449.075 75.1693 453.468 70.0592 451.795 67.7597C451.268 67.036 450.928 66.1439 450.709 65.2609C450.468 65.1904 450.226 65.1381 449.982 65.1194C448.49 65.0055 448.276 63.673 447.902 62.5987C447.266 62.1078 446.274 61.487 446.485 62.5883C446.789 64.1844 445.047 64.7164 444.045 63.7057C443.043 62.6947 441.606 63.2801 442.564 64.2909C443.522 65.3018 444.481 66.7383 443.958 67.0044C443.435 67.2704 442.129 68.6005 445.918 69.2923C449.708 69.9839 444.611 70.9417 443.871 70.9948C443.13 71.0482 446.615 70.3032 446.18 70.1436C445.056 69.732 442.259 69.1327 442.869 69.7712C443.479 70.4097 441.214 68.4942 442.782 68.6007C444.35 68.7071 441.954 67.643 442.782 66.7385C443.609 65.834 441.127 64.3975 441.606 63.1205C442.085 61.8436 442.782 61.418 443.74 62.6416C444.698 63.8653 445.265 64.0782 445.482 63.759C445.7 63.4399 444.96 61.3115 445.962 61.4711C446.366 61.5354 446.69 61.4434 446.936 61.3113C445.579 60.6032 443.081 59.1259 443.149 58.0504C443.218 56.9433 442.777 55.9776 442.777 55.9776C443.428 56.3182 443.613 57.1121 443.985 58.3613C444.357 59.6103 446.867 60.4033 448.355 60.5168C449.842 60.6303 449.284 63.0111 450.214 61.6484C450.252 61.5929 450.29 61.5465 450.329 61.4979C450.329 61.4725 450.33 61.4577 450.33 61.4577L450.345 61.4766C451.241 60.3633 452.244 61.0992 453.84 61.6405C455.513 62.2083 455.885 55.8332 455.885 55.8332C451.702 54.9247 453.003 45.2404 451.237 43.5371C450.631 42.9531 450.014 41.7875 449.466 40.508C449.115 40.4615 448.724 40.4112 448.304 40.3584C448.179 41.0404 448.105 41.4443 448.105 41.4443C448.105 41.4443 447.456 41.4392 447.595 41.2287C447.614 41.1996 447.69 40.8594 447.806 40.2965C447.211 40.2225 446.57 40.1446 445.907 40.0653C445.79 40.7028 445.722 41.0794 445.722 41.0794C445.722 41.0794 445.073 41.0744 445.212 40.8637C445.23 40.836 445.3 40.5235 445.408 40.0056C444.911 39.9464 444.406 39.8868 443.902 39.8278C443.727 40.7842 443.62 41.3721 443.62 41.3721C443.62 41.3721 442.971 41.3672 443.11 41.1565C443.134 41.1203 443.245 40.603 443.414 39.7707C442.684 39.6855 441.966 39.6027 441.288 39.5248C441.128 40.397 441.032 40.9281 441.032 40.9281C441.032 40.9281 440.383 40.9231 440.522 40.7124C440.544 40.6784 440.645 40.2162 440.797 39.4683C439.988 39.3756 439.255 39.2926 438.655 39.2249C438.484 40.1603 438.379 40.7344 438.379 40.7344C438.379 40.7344 437.73 40.7295 437.869 40.5188C437.893 40.4832 438.002 39.9797 438.166 39.1696C437.467 39.0909 437.045 39.0439 437.045 39.0439C437.045 39.0439 436.966 38.257 437.154 38.3983C437.186 38.4221 437.607 38.4894 438.284 38.5846C438.367 38.1679 438.46 37.6986 438.56 37.1886C437.417 37.0594 436.676 36.9767 436.676 36.9767C436.676 36.9767 436.597 36.1899 436.786 36.3314C436.828 36.363 437.562 36.472 438.671 36.6214C438.97 35.0908 439.319 33.2786 439.658 31.5049C439.374 31.2874 439.1 31.0653 438.833 30.8396L438.818 31.0913C438.818 31.0913 437.163 28.6438 436.64 30.8784C436.64 30.8784 436.741 29.8761 436.991 29.089C436.97 29.0664 436.949 29.0436 436.928 29.021C436.576 29.6549 436.031 30.6655 436.031 30.6655C436.031 30.6655 435.52 29.1668 435.516 28.0828C435.25 28.8187 434.898 29.7079 434.898 29.7079C434.898 29.7079 435.353 27.9132 435.067 26.7781C434.902 26.5542 434.744 26.3323 434.592 26.1127C434.485 26.0393 434.378 25.9686 434.271 25.9025C433.657 25.9732 434.636 28.5373 434.636 28.5373C434.636 28.5373 433.703 27.1429 433.437 26.115C433.328 26.8604 433.156 27.7924 433.156 27.7924C433.156 27.7924 433.074 26.1148 432.678 25.2308C432.582 25.2105 432.485 25.1946 432.388 25.1822C432.237 25.7786 432.285 27.5795 432.285 27.5795C432.285 27.5795 432.212 25.7349 431.807 25.1584C431.748 25.1611 431.689 25.1643 431.629 25.1704C431.533 25.18 431.441 25.1836 431.348 25.1887C431.012 25.7331 430.803 27.2604 430.803 27.2604L429.954 25.0899C429.774 25.0517 429.601 25.0016 429.431 24.9451C429.262 25.6536 429.175 26.6795 429.497 27.3666C430.113 28.6839 428.347 26.4237 428.411 24.4851C428.35 24.4502 428.289 24.4164 428.23 24.3794C427.831 25.3915 427.319 26.7281 427.319 26.7281L427.779 24.075C427.721 24.0323 427.661 23.99 427.603 23.9454C427.271 24.5764 426.708 25.3689 426.012 25.2383C426.012 25.2383 426.826 24.4796 427.135 23.5638C426.742 23.226 426.356 22.8508 425.963 22.4492C425.297 23.4942 424.71 25.7556 424.967 27.792C424.967 27.792 424.106 24.8121 425.184 21.636C425.169 21.6205 425.154 21.6049 425.139 21.5892C424.562 22.8132 423.921 24.174 423.921 24.174C423.921 24.174 424.246 22.9264 424.488 21.6022C424.332 21.4147 424.127 21.3405 423.914 21.7304C423.914 21.7304 424.129 21.1602 424.367 20.9023C424.59 20.6601 423.688 21.5457 423.688 21.5457C423.688 21.5457 423.641 20.8505 423.756 20.4078C423.569 20.666 423.329 20.9735 423.329 20.9735C423.329 20.9735 423.584 20.5281 423.678 20.0869C423.561 19.9718 423.442 19.8569 423.32 19.742C423.308 20.0651 423.348 20.4541 423.348 20.4541C423.348 20.4541 423.2 19.996 423.142 19.5761C423.104 19.5415 423.068 19.5067 423.03 19.4721C422.926 19.7009 422.823 19.913 422.823 19.913C422.823 19.913 422.877 19.6558 422.905 19.3589C422.818 19.2804 422.73 19.2023 422.641 19.1244C422.559 19.3959 422.491 19.6865 422.491 19.6865C422.491 19.6865 422.559 19.3752 422.582 19.072C422.46 18.9666 422.336 18.8617 422.209 18.7576C422.058 18.9941 421.921 19.3192 421.921 19.3192L421.824 18.4491C421.738 18.3818 421.65 18.3153 421.561 18.2488C421.435 18.5075 421.325 18.8584 421.376 19.1531C421.478 19.7418 421.076 18.7541 421.201 17.9845C421.155 17.9515 421.107 17.919 421.06 17.8864C420.815 18.2035 420.556 18.5437 420.556 18.5437L420.913 17.7839C420.851 17.7417 420.788 17.7 420.725 17.6585C420.554 17.7713 420.359 17.8342 420.183 17.7266C420.183 17.7266 420.344 17.6564 420.519 17.5257C420.342 17.413 420.161 17.3024 419.976 17.194C419.966 17.2105 419.957 17.2288 419.947 17.2457L419.99 17.5021C419.99 17.5021 419.936 17.457 419.859 17.4078C419.852 17.4236 419.844 17.4405 419.837 17.4564C419.836 18.3269 419.803 19.1724 419.762 19.8923C420.682 20.0202 421.474 20.1676 421.474 20.1676C421.654 20.3724 421.585 20.8482 421.538 21.0815C421.523 21.15 421.462 21.1848 421.41 21.1538C420.964 20.8848 420.347 20.7173 419.715 20.614C419.655 21.4471 419.596 21.9866 419.596 21.9866C419.596 21.9866 418.625 21.9487 418.69 21.7889C418.82 21.4621 418.929 21.0235 419.019 20.5241C417.924 20.4165 416.957 20.4641 416.957 20.4641C416.957 20.4641 416.65 20.3059 416.99 19.8512C417.148 19.6399 418.127 19.6932 419.13 19.8109C419.236 19.028 419.307 18.1667 419.354 17.3773C419.316 17.4375 419.292 17.5302 419.291 17.6689C419.291 17.6689 419.232 17.1969 419.294 16.9116C419.353 16.6436 419.084 17.6676 419.084 17.6676C419.084 17.6676 418.816 17.2508 418.737 16.9106C418.706 17.1706 418.66 17.4885 418.66 17.4885C418.66 17.4885 418.673 16.912 418.516 16.5805C418.398 16.548 418.276 16.5179 418.151 16.4904C418.191 16.7182 418.493 17.1493 418.493 17.1493C418.493 17.1493 418.099 16.8105 417.943 16.5159C417.962 16.7619 417.975 17.0745 417.975 17.0745C417.975 17.0745 417.857 16.657 417.697 16.4014C417.647 16.393 417.598 16.3843 417.548 16.3764C417.559 16.6039 417.687 17.1011 417.687 17.1011C417.687 17.1011 417.499 16.4091 417.311 16.365C417.125 16.3209 417.199 17.1597 417.199 17.1597L416.722 16.4945C416.631 15.8412 416.471 16.9405 416.796 17.3333C417.101 17.7006 416.281 17.2577 416.234 16.6184C416.231 16.6184 416.229 16.6184 416.226 16.6184C416.177 16.6184 416.067 17.5499 416.067 17.5499L416.033 16.8134C415.839 19.4004 415.014 21.3253 413.488 20.9218C411.902 20.5025 411.565 19.1145 411.503 18.3454C411.342 18.1608 411.136 17.8864 411.02 17.6316C411.049 18.019 411.07 18.4912 411.07 18.4912C411.07 18.4912 410.811 16.96 410.21 17.0135C409.609 17.0671 410.736 18.0668 410.736 18.0668C410.736 18.0668 410.072 17.7416 409.764 17.3821C409.861 17.7288 409.967 18.1738 409.967 18.1738C409.967 18.1738 409.584 17.4338 409.237 17.1985C408.89 16.9632 409.558 18.3324 409.558 18.3324C409.558 18.3324 409.093 17.4128 408.811 17.4271C408.529 17.4415 408.871 18.6203 408.871 18.6203L407.997 17.8594C407.684 16.9551 407.759 18.6077 408.339 19.0384C408.919 19.4691 407.334 18.8363 407.241 17.7827C407.149 16.7292 407.296 19.3904 407.296 19.3904L406.882 17.7321C406.882 17.7321 406.913 18.1305 406.837 18.5085C406.758 21.4593 405.927 23.8726 404.253 23.4301C402.756 23.034 402.371 21.7942 402.282 21.0097C402.021 20.7901 401.746 20.5239 401.553 20.2463C401.708 20.8934 401.877 21.6958 401.877 21.6958C401.877 21.6958 401.257 19.9067 400.454 19.5645C400.215 19.6497 399.977 19.7357 399.74 19.8223C399.764 20.3124 401.191 21.1185 401.191 21.1185C401.191 21.1185 399.975 20.8419 399.349 20.3588C399.609 20.9086 399.912 21.6197 399.912 21.6197C399.912 21.6197 399.119 20.602 398.474 20.2953C398.397 20.325 398.32 20.3547 398.243 20.3846C398.343 20.8169 399.259 22.059 399.259 22.059C399.259 22.059 398.214 20.6847 397.737 20.8254C397.261 20.9662 398.169 22.8331 398.169 22.8331L396.471 21.8979C395.687 20.4871 396.272 23.2705 397.379 23.7647C398.485 24.2588 395.611 23.8356 395.162 22.0795C395.103 21.8499 395.07 21.7287 395.055 21.6882C395.052 21.6893 395.049 21.6905 395.046 21.6917C395.071 21.9457 395.7 24.7946 395.7 24.7946L394.535 22.1413C394.535 22.1413 395.023 24.0914 394.203 24.7033C394.203 24.7033 394.53 22.9002 393.83 22.2318C393.526 22.3703 393.23 22.5078 392.943 22.6438C392.854 23.6898 393.493 25.7835 394.664 27.0306C394.664 27.0306 392.872 25.7451 392.125 23.1147C392.111 23.1877 392.098 23.2604 392.085 23.3336C392.24 24.3796 392.391 25.4028 392.391 25.4028C392.391 25.4028 392.207 24.8607 391.94 24.175C391.665 25.8095 391.474 27.2688 391.647 27.358C392.05 27.5653 393.048 29.5095 393.26 29.7429C393.472 29.9762 394.045 31.2205 393.706 31.5834C393.366 31.9464 393.451 33.3721 393.451 33.3721C392.475 32.7759 392.687 31.2463 392.687 31.2463C392.687 31.2463 392.411 30.9093 392.263 31.1946C392.114 31.4797 392.836 33.6314 392.921 33.8388C393.005 34.0462 392.454 35.4202 392.156 35.7572C391.859 36.0943 391.053 36.0423 391.053 36.0423C390.968 34.8238 391.647 34.7461 391.647 34.7461C391.775 34.2536 391.966 33.8388 391.966 33.8388C391.711 33.7871 391.541 32.3871 391.286 32.4389C391.032 32.4906 391.032 33.8128 391.011 34.435C390.99 35.0572 389.695 37.6235 389.695 37.6235C388.888 36.5346 390.204 34.3571 390.204 34.3571C390.098 34.072 390.013 32.6201 390.013 32.6201C390.013 32.6201 389.589 33.631 389.334 34.0458C389.079 34.4606 388.485 34.3051 388.485 34.3051C388.485 34.3051 387.721 33.2163 388.146 32.9571C388.57 32.698 388.91 33.0608 388.91 33.0608C388.91 33.0608 389.504 32.335 389.122 31.7646C388.74 31.1944 388.549 31.7128 388.4 31.8423C388.252 31.972 386.596 31.7904 386.596 31.7904C386.681 30.8831 388.358 30.9868 388.358 30.9868L388.57 30.4164C388.487 28.1905 388.608 27.8382 389.166 26.7628C388.815 26.8743 388.563 27.2226 388.609 28.026C388.609 28.026 388.326 26.6006 388.475 25.6942C388.614 24.843 387.935 28.1155 387.935 28.1155C387.935 28.1155 386.982 26.9587 386.658 25.9494C386.609 26.7616 386.518 27.7572 386.518 27.7572C386.518 27.7572 386.462 26.2933 386.025 25.3122C385.644 25.3546 385.26 25.3805 384.872 25.3908C385.238 26.0413 385.911 26.7885 385.911 26.7885C385.911 26.7885 384.867 26.1221 384.228 25.3941C384.164 25.3931 384.1 25.3908 384.036 25.3888C384.129 26.0694 384.207 26.7935 384.207 26.7935C384.207 26.7935 383.922 26.0371 383.524 25.3666C383.271 25.351 383.018 25.3296 382.763 25.3028C382.934 26.0397 383.271 27.0065 383.271 27.0065C383.271 27.0065 382.851 25.8555 382.38 25.2597C382.342 25.255 382.305 25.2518 382.268 25.2469C382.271 27.1065 382.202 28.9185 382.113 30.4536C384.009 30.717 385.64 31.0206 385.64 31.0206C386.01 31.4427 385.869 32.4223 385.771 32.9032C385.742 33.0443 385.614 33.1163 385.507 33.052C384.589 32.4981 383.319 32.1534 382.017 31.9405C381.894 33.6564 381.772 34.7679 381.772 34.7679C381.772 34.7679 379.773 34.69 379.905 34.3606C380.174 33.6875 380.398 32.7842 380.583 31.7553C378.329 31.5336 376.337 31.6318 376.337 31.6318C376.337 31.6318 375.704 31.3059 376.404 30.3692C376.729 29.9339 378.746 30.0437 380.812 30.2861C380.961 29.1792 381.077 27.996 381.167 26.8369L380.01 25.5785C379.589 23.6099 379.276 27.0652 380.414 28.1257C381.552 29.1862 378.284 27.4188 378.387 25.2033C378.489 22.9877 378.043 28.5594 378.043 28.5594L377.619 24.9951C377.619 24.9951 377.492 27.4502 376.294 27.7869C376.294 27.7869 377.626 25.3341 376.432 24.4138C375.238 23.4938 374.64 27.8442 375.999 30.6633C375.999 30.6633 373.885 27.7822 374.508 23.7242C374.273 25.253 373.884 27.782 373.884 27.782C373.884 27.782 373.826 25.9454 373.604 24.3869C372.966 28.1617 372.512 31.5731 372.91 31.7782C373.823 32.2472 376.079 36.6458 376.56 37.1737C377.04 37.7014 378.336 40.5166 377.568 41.3377C376.8 42.1588 376.992 45.3845 376.992 45.3845C374.783 44.0357 375.263 40.5753 375.263 40.5753C375.263 40.5753 374.639 39.8128 374.303 40.458C373.967 41.1032 375.599 45.9708 375.791 46.4401C375.983 46.9093 374.735 50.0175 374.063 50.78C373.391 51.5424 371.566 51.4252 371.566 51.4252C371.374 48.6688 372.91 48.4929 372.91 48.4929C373.198 47.3786 373.631 46.4403 373.631 46.4403C373.054 46.323 372.67 43.156 372.094 43.2732C371.518 43.3905 371.518 46.3816 371.47 47.7891C371.422 49.1967 368.493 55.0026 368.493 55.0026C366.668 52.5394 369.645 47.6131 369.645 47.6131C369.405 46.968 369.213 43.6837 369.213 43.6837C369.213 43.6837 368.253 45.971 367.677 46.9093C367.101 47.8477 365.756 47.4959 365.756 47.4959C365.756 47.4959 364.028 45.0326 364.988 44.4463C365.948 43.8598 366.716 44.6808 366.716 44.6808C366.716 44.6808 368.061 43.0387 367.197 41.7485C366.332 40.4584 365.9 41.6313 365.564 41.9244C365.228 42.2176 361.483 41.8072 361.483 41.8072C361.675 39.7546 365.468 39.9891 365.468 39.9891L365.948 38.699C365.756 33.538 366.044 32.8342 367.389 30.2537C368.165 28.764 367.565 23.9121 366.919 19.9866C366.766 22.9537 365.327 24.9174 365.327 24.9174C366.4 22.6932 366.253 19.5183 365.558 18.7277C365.423 18.6679 365.288 18.6055 365.155 18.5496C365.072 18.5616 364.985 18.5976 364.894 18.6677C363.701 19.5877 365.033 22.0405 365.033 22.0405C363.835 21.7039 363.707 19.2487 363.707 19.2487L363.284 22.8128C363.284 22.8128 362.837 17.2414 362.94 19.4569C363.042 21.6724 359.775 23.4397 360.912 22.3794C362.05 21.3188 361.737 17.8635 361.316 19.8321L359.634 21.6626C359.634 21.6626 360.038 19.1153 359.42 19.1661C358.802 19.2168 358.056 21.2604 358.056 21.2604C358.056 21.2604 359.115 18.224 358.428 18.8125C357.74 19.4008 357.119 21.0473 357.119 21.0473C357.119 21.0473 357.222 20.0964 357.332 19.3495C356.762 20.1825 355.415 21.0424 355.415 21.0424C355.415 21.0424 357.579 18.6405 356.256 18.7009C354.932 18.7614 354.809 22.0108 354.809 22.0108C354.809 22.0108 354.718 21.015 354.668 20.203C354.345 21.2124 353.391 22.3691 353.391 22.3691C353.391 22.3691 352.712 19.0964 352.852 19.9478C352.932 20.4375 352.886 21.0776 352.827 21.5638C355.862 27.3857 357.007 33.8134 353.319 35.2606C348.916 36.9885 347.313 32.3192 347.313 32.3192L345.916 28.5155C345.679 31.2672 344.771 33.2891 343.081 32.9136C340.402 32.3185 340.63 29.3501 340.63 29.3501L340.662 28.7892C340.241 28.6334 340.046 27.8215 340.046 27.8215L340.14 29.3299C340.14 29.3299 339.539 27.0965 339.747 27.9931C339.956 28.8897 338.749 29.9804 339.136 29.4182C339.522 28.8559 339.134 27.4748 339.11 28.329L338.558 29.2679C338.558 29.2679 338.532 28.1786 338.282 28.2688C338.033 28.3589 337.881 29.2801 337.881 29.2801C337.881 29.2801 338.029 28.2957 337.927 28.1981C337.908 28.204 337.888 28.2095 337.868 28.2152C337.862 28.2219 337.856 28.2255 337.849 28.2351C337.825 28.2682 337.801 28.3065 337.779 28.3473C338.004 31.1662 337.917 34.3213 337.779 36.7207C339.472 36.9561 340.93 37.2274 340.93 37.2274C341.261 37.6044 341.134 38.4798 341.046 38.9093C341.021 39.0352 340.906 39.0996 340.811 39.0421C339.99 38.5473 338.856 38.2393 337.693 38.0491C337.583 39.582 337.474 40.5751 337.474 40.5751C337.474 40.5751 335.688 40.5054 335.806 40.2113C336.047 39.6098 336.246 38.8029 336.411 37.8836C334.398 37.6855 332.618 37.7732 332.618 37.7732C332.618 37.7732 332.052 37.4822 332.678 36.6452C332.969 36.2564 334.77 36.3546 336.616 36.571C336.965 33.9901 337.108 30.9453 337.167 29.0306C336.979 29.283 336.782 29.4869 336.782 29.4869C336.782 29.4869 337.317 28.5574 337.1 28.4313C337.013 28.4543 336.924 28.4765 336.836 28.499C336.444 28.8171 336.539 29.952 336.539 29.952C336.539 29.952 336.409 29.7513 336.333 29.5182C336.989 32.9339 336.853 36.0575 334.816 36.23C332.099 36.4602 331.754 33.5149 331.754 33.5149L331.593 32.321C331.094 34.5755 330.112 36.0529 328.632 35.5634C326.004 34.6937 326.441 31.7595 326.441 31.7595L326.68 29.8895C326.61 30.0333 326.571 30.122 326.571 30.122C326.571 30.122 326.643 29.8245 326.741 29.42L326.831 28.7119C326.126 30.3296 324.865 30.9224 324.865 30.9224C326.17 29.9111 326.799 27.4847 325.988 27.5738C325.177 27.6627 325.333 29.3503 325.333 29.3503C324.791 28.7927 325.254 27.491 325.254 27.491L324.269 29.1853C324.269 29.1853 325.239 26.1806 324.814 27.3513C324.39 28.522 322.332 28.3801 323.144 28.2011C323.957 28.0218 324.54 26.1469 323.9 27.0225L322.642 27.4223C322.642 27.4223 323.397 26.2437 323.069 26.0714C322.741 25.899 321.918 26.7088 321.918 26.7088C321.918 26.7088 323.116 25.4899 322.636 25.5712C322.156 25.6525 321.483 26.2988 321.483 26.2988C321.483 26.2988 321.741 25.8411 321.959 25.4927C321.488 25.7392 320.609 25.7491 320.609 25.7491C320.609 25.7491 322.237 25.2105 321.544 24.8164C320.852 24.4223 320.089 26.0513 320.089 26.0513C320.089 26.0513 320.257 25.5088 320.407 25.0755C320.024 25.4911 319.284 25.7802 319.284 25.7802C319.284 25.7802 319.64 23.8814 319.528 24.3635C319.409 24.8766 318.957 25.5177 318.957 25.5177C319.366 24.6909 318.689 24.4597 318.272 24.395C318.032 24.854 317.86 25.2273 317.86 25.2273C317.86 25.2273 317.95 24.853 318.067 24.3727C318.015 24.3696 317.982 24.3696 317.982 24.3696L318.105 24.2124C318.232 23.6906 318.378 23.0865 318.472 22.6995C318.454 22.7709 318.436 22.849 318.413 22.9425C317.86 25.2271 316.153 26.0277 316.153 26.0277C317.458 25.0163 318.088 22.5899 317.277 22.679C316.465 22.7682 316.621 24.4556 316.621 24.4556C316.079 23.8979 316.542 22.5962 316.542 22.5962L315.557 24.2905C315.557 24.2905 316.527 21.2858 316.103 22.4565C315.941 22.9029 315.541 23.1581 315.154 23.2937C315.039 24.6374 315.046 25.7904 315.314 26.3053C316.161 27.9305 316.342 28.3738 316.221 31.6245L316.524 32.4371C316.524 32.4371 318.912 32.2893 319.034 33.5822C319.034 33.5822 316.675 33.8408 316.463 33.656C316.251 33.4713 315.979 32.7326 315.435 33.5452C314.891 34.3579 315.737 35.3922 315.737 35.3922C315.737 35.3922 316.221 34.8751 316.826 35.2445C317.431 35.6138 316.342 37.1652 316.342 37.1652C316.342 37.1652 315.495 37.3868 315.132 36.7959C314.77 36.2048 314.165 34.7642 314.165 34.7642C314.165 34.7642 314.044 36.8327 313.893 37.239C313.893 37.239 315.767 40.3417 314.618 41.8932C314.618 41.8932 312.774 38.2362 312.743 37.3498C312.713 36.4632 312.713 34.5794 312.35 34.5056C311.987 34.4318 311.745 36.4264 311.383 36.5002C311.383 36.5002 311.655 37.0912 311.836 37.7931C311.836 37.7931 312.804 37.9039 312.683 39.6401C312.683 39.6401 311.534 39.7139 311.11 39.2338C310.687 38.7537 309.901 36.7959 310.022 36.5004C310.143 36.2048 311.171 33.1391 310.959 32.7328C310.747 32.3265 310.354 32.8066 310.354 32.8066C310.354 32.8066 310.657 34.9859 309.266 35.8355C309.266 35.8355 309.387 33.8038 308.903 33.2867C308.419 32.7696 309.236 30.9966 309.538 30.6641C309.84 30.3316 311.262 27.5612 311.836 27.2657C312.047 27.1577 311.88 25.6345 311.585 23.7472C311.65 26.0794 310.753 27.7769 310.753 27.7769C311.597 25.1578 310.609 21.5597 309.696 22.5378C308.783 23.5158 310.185 25.3811 310.185 25.3811C309.13 25.2922 308.751 23.2268 308.751 23.2268L308.784 26.3252C308.784 26.3252 307.79 21.6643 308.122 23.53C308.453 25.3957 305.871 27.4349 306.721 26.3466C307.571 25.2583 306.925 22.3738 306.783 24.1158L305.556 25.9478C305.556 25.9478 305.618 23.7169 305.099 23.8617C304.579 24.0066 304.17 25.8657 304.17 25.8657C304.17 25.8657 304.736 23.1115 304.217 23.7244C303.698 24.3375 303.352 25.8386 303.352 25.8386C303.352 25.8386 303.334 25.0138 303.345 24.3609C302.953 25.1627 301.903 26.1146 301.903 26.1146C301.903 26.1146 303.477 23.7179 302.359 23.9869C301.241 24.2559 301.494 27.0374 301.494 27.0374C301.494 27.0374 301.307 26.2032 301.175 25.5204C301.118 25.8447 300.996 26.1971 300.86 26.5182C300.907 27.7448 300.971 29.0298 301.06 30.2163C302.071 30.002 303.057 29.905 303.216 30.2897C303.559 31.1178 303.249 31.4059 303.249 31.4059C303.249 31.4059 302.275 31.3191 301.172 31.5151C301.262 32.4249 301.371 33.2233 301.503 33.8185C301.568 34.1097 300.59 34.1786 300.59 34.1786C300.59 34.1786 300.53 33.196 300.47 31.679C299.833 31.8673 299.212 32.1721 298.762 32.6618C298.71 32.7187 298.647 32.6549 298.633 32.5304C298.604 32.2685 298.567 31.8397 298.584 31.4614C298.421 31.5611 298.234 31.6245 298.02 31.6426C295.996 31.8142 295.714 29.6193 295.714 29.6193L295.461 27.9248C295.283 28.293 295.104 28.4673 295.254 28.1324C295.56 27.4461 294.917 26.1052 295.039 27.0026L294.625 28.1243C294.625 28.1243 294.41 26.9945 294.165 27.1529C293.92 27.3113 293.921 28.3116 293.921 28.3116C293.921 28.3116 293.91 27.5673 293.834 27.2779C293.765 27.3338 293.696 27.3894 293.629 27.4443C293.513 27.8605 293.507 28.4329 293.507 28.4329C293.507 28.4329 293.406 28.0199 293.339 27.6897C293.233 28.157 292.81 28.8102 292.81 28.8102C292.81 28.8102 292.989 28.3091 293.032 27.9577C292.851 28.1198 292.688 28.2727 292.542 28.4136C292.556 28.8669 292.707 29.3407 292.707 29.3407C292.707 29.3407 292.521 28.9529 292.379 28.6316C292.398 29.1158 292.182 29.8023 292.182 29.8023C292.182 29.8023 291.963 29.4641 291.788 29.1971C291.769 29.2185 291.751 29.2388 291.737 29.2551C291.841 29.5719 291.893 29.9158 291.893 29.9158C291.837 29.7295 291.715 29.5459 291.553 29.3704C291.177 30.2202 290.854 31.2298 290.854 31.2298C290.854 31.2298 291.01 29.9432 291.127 28.9859C291.124 28.984 291.122 28.982 291.119 28.98C290.718 31.3209 289.126 32.4023 289.126 32.4023C290.398 31.0783 290.772 28.364 289.914 28.6092C289.057 28.8545 289.433 30.6324 289.433 30.6324C288.783 30.1356 289.117 28.6562 289.117 28.6562L288.503 30.1075C288.483 31.0574 288.458 31.9678 288.431 32.8176C289.922 33.1923 291.206 33.6238 291.206 33.6238C291.497 34.2237 291.386 35.6167 291.309 36.3003C291.286 36.5008 291.186 36.6031 291.102 36.5118C290.379 35.7244 289.38 35.2342 288.356 34.9314C288.259 37.371 288.163 38.951 288.163 38.951C288.163 38.951 286.59 38.84 286.694 38.372C286.906 37.4149 287.081 36.1307 287.227 34.668C285.454 34.3526 283.886 34.4922 283.886 34.4922C283.886 34.4922 283.388 34.0291 283.939 32.6972C284.195 32.0784 285.782 32.2346 287.407 32.5792C287.476 31.6556 287.536 30.6944 287.588 29.725C286.99 30.0103 286.457 30.0034 286.947 29.806C287.229 29.6921 287.46 29.3812 287.623 29.0566C287.635 28.8108 287.647 28.5651 287.658 28.3197C287.643 28.3455 287.627 28.3734 287.61 28.4045L286.312 29.065C286.312 29.065 286.976 27.6635 286.603 27.5396C286.23 27.4156 285.449 28.4348 285.449 28.4348C285.449 28.4348 286.58 26.9084 286.077 27.0841C285.573 27.2598 284.932 28.0761 284.932 28.0761C284.932 28.0761 285.152 27.5382 285.342 27.125C284.868 27.476 283.928 27.649 283.928 27.649C283.928 27.649 285.605 26.7714 284.815 26.4775C284.024 26.1835 283.409 28.0688 283.409 28.0688C283.409 28.0688 283.522 27.4569 283.628 26.9652C283.27 27.4809 282.513 27.9272 282.513 27.9272C282.513 27.9272 282.541 27.5268 282.567 27.1205C280.921 32.818 277.961 37.1674 275.105 34.8893C271.607 32.0985 273.377 28.0677 273.377 28.0677L275.831 22.1354C275.848 21.9894 275.866 21.8434 275.883 21.6998C275.87 21.6938 275.857 21.6881 275.843 21.6822C275.186 24.6307 273.176 25.9974 273.176 25.9974C274.472 24.6484 275.09 22.254 274.848 21.2317C274.585 21.1091 274.322 20.9832 274.059 20.8549C273.143 21.4036 273.598 23.5572 273.598 23.5572C272.701 22.872 273.163 20.832 273.163 20.832L271.998 23.5845C271.998 23.5845 272.917 18.901 272.49 20.7376C272.064 22.5743 269 22.8894 270.17 22.4177C271.339 21.9461 271.88 19.0293 271.084 20.4852L269.295 21.396C269.295 21.396 270.21 19.4634 269.695 19.2926C269.181 19.1216 268.104 20.5271 268.104 20.5271C268.104 20.5271 269.665 18.4221 268.97 18.6643C268.276 18.9066 267.392 20.0322 267.392 20.0322C267.392 20.0322 267.694 19.294 267.956 18.7246C267.301 19.2064 266.008 19.4429 266.008 19.4429C266.008 19.4429 268.32 18.2328 267.23 17.8277C266.14 17.4224 265.291 20.022 265.291 20.022C265.291 20.022 265.446 19.181 265.593 18.5038C265.098 19.2133 264.056 19.8264 264.056 19.8264C264.056 19.8264 264.258 16.9325 264.175 17.6725C264.087 18.4603 263.529 19.522 263.529 19.522C263.777 18.8129 263.63 17.6811 263.356 16.5549C263.386 16.8727 263.411 17.0791 263.411 17.0791C263.411 17.0791 263.164 16.3007 262.906 15.4863C262.871 15.4751 262.837 15.4633 262.802 15.4525C263.124 17.652 262.267 19.3754 262.267 19.3754C262.744 17.7697 262.376 15.745 261.858 15.1837C261.714 15.1475 261.57 15.1136 261.428 15.0827C261.392 15.1054 261.356 15.1341 261.32 15.1742C261.309 15.1868 261.3 15.1998 261.29 15.2128C261.312 15.7259 261.328 16.2426 261.337 16.7599C261.531 17.1601 261.766 17.4566 261.766 17.4566C261.608 17.4486 261.468 17.3848 261.344 17.287C261.363 19.3241 261.29 21.3293 261.193 23.0047C263.088 23.2681 264.72 23.5717 264.72 23.5717C265.09 23.9938 264.949 24.9736 264.851 25.4543C264.822 25.5954 264.694 25.6674 264.587 25.6031C263.668 25.0492 262.399 24.7045 261.097 24.4916C260.974 26.2075 260.852 27.3188 260.852 27.3188C260.852 27.3188 258.853 27.2409 258.985 26.9115C259.254 26.2384 259.478 25.3351 259.662 24.3062C257.408 24.0843 255.417 24.1827 255.417 24.1827C255.417 24.1827 254.783 23.8568 255.484 22.9201C255.809 22.4848 257.825 22.5946 259.891 22.837C260.139 21.0048 260.294 18.9644 260.391 17.1694C260.158 16.2025 259.878 15.0755 260.067 16.0169C260.368 17.5141 258.32 19.2287 258.987 18.3277C259.653 17.4267 259.08 15.1154 258.997 16.5254L258.039 18.0367C258.039 18.0367 258.049 16.2344 257.633 16.365C257.216 16.4957 256.919 18.0072 256.919 18.0072C256.919 18.0072 257.327 15.7688 256.918 16.2775C256.51 16.7861 256.257 18.007 256.257 18.007C256.257 18.007 256.228 17.3386 256.226 16.8107C255.925 17.469 255.093 18.2683 255.093 18.2683C255.093 18.2683 256.321 16.2918 255.423 16.5386C254.526 16.7853 254.779 19.024 254.779 19.024C254.779 19.024 254.613 18.3556 254.495 17.8081C254.424 18.2687 254.193 18.8041 254.026 19.1452C254.2 19.9781 254.404 20.7104 254.404 20.7104C254.404 20.7104 253.816 19.5484 253.357 18.6419C253.359 18.658 253.361 18.6744 253.362 18.6905C254.316 20.9904 253.623 23.2237 253.623 23.2237C253.863 21.4575 253.121 19.4478 252.509 19.1427C252.328 19.2828 252.144 19.4191 251.956 19.5521C251.7 20.457 252.844 21.4493 252.844 21.4493C251.998 21.5968 251.413 20.044 251.413 20.044L251.868 22.4838C251.868 22.4838 251.159 20.7596 250.921 20.2321C250.913 20.237 250.905 20.2418 250.898 20.2467C250.914 20.2927 250.933 20.3458 250.958 20.4137C251.478 21.8186 249.722 23.9617 250.242 22.9269C250.608 22.1995 250.268 20.9253 250.078 20.7197C250.045 20.7374 250.013 20.7549 249.981 20.7724C249.967 20.8448 249.966 20.967 249.983 21.1528L249.267 22.8528C249.267 22.8528 249.094 21.6702 248.818 21.3572C248.691 21.4164 248.565 21.4745 248.438 21.5317C248.361 21.6976 248.304 21.9235 248.263 22.1525C248.766 26.6126 247.962 31.118 245.508 30.573C242.829 29.9778 243.057 27.0095 243.057 27.0095L243.205 24.4054C242.982 24.0119 242.717 23.8714 242.48 24.1571C241.782 24.9978 242.984 26.4212 242.984 26.4212C242.636 26.4167 242.367 26.1404 242.169 25.8158C242.067 25.7298 241.936 25.6125 241.785 25.4628L241.89 27.2623C241.89 27.2623 241.388 25.3658 241.227 24.8335C241.215 24.8192 241.204 24.8046 241.193 24.7901C241.204 24.8471 241.222 24.9292 241.249 25.0472C241.303 25.2843 241.293 25.5287 241.248 25.7691L242.199 28.0687C242.199 28.0687 243.971 32.0977 240.472 34.8903C237.618 37.1676 234.655 32.8186 233.008 27.122C233.037 27.5264 233.063 27.9272 233.063 27.9272C233.063 27.9272 232.308 27.4792 231.949 26.9639C232.045 27.4085 232.144 27.9543 232.16 28.0519C232.096 27.8565 231.509 26.1992 230.761 26.4788C229.99 26.7651 231.567 27.6039 231.647 27.6444C231.579 27.6344 230.69 27.4626 230.234 27.1256C230.411 27.5097 230.613 27.9947 230.639 28.0655C230.565 27.9746 229.971 27.2503 229.499 27.0853C229.069 26.9338 229.83 28.0252 230.064 28.3484C229.862 28.1058 229.281 27.4388 228.973 27.54C228.6 27.6645 229.265 29.066 229.265 29.066L227.968 28.4057C227.949 28.3721 227.933 28.3451 227.92 28.3215C227.929 28.5641 227.942 28.8098 227.955 29.0558C228.115 29.3826 228.347 29.6925 228.629 29.807C229.12 30.0024 228.587 30.0091 227.987 29.7262C228.042 30.693 228.099 31.6564 228.17 32.5794C229.794 32.2358 231.38 32.0774 231.637 32.6972C232.189 34.0279 231.692 34.4926 231.692 34.4926C231.692 34.4926 230.122 34.3512 228.35 34.6678C228.494 36.1297 228.671 37.4131 228.883 38.3733C228.985 38.8383 227.412 38.9494 227.412 38.9494C227.412 38.9494 227.316 37.3695 227.22 34.9306C226.196 35.2338 225.197 35.7257 224.475 36.5106C224.392 36.6015 224.289 36.5006 224.267 36.3017C224.19 35.6179 224.08 34.2233 224.369 33.6236C224.369 33.6236 225.653 33.1925 227.146 32.8184C227.117 31.9661 227.095 31.0566 227.072 30.1067L226.459 28.6548C226.459 28.6548 226.793 30.137 226.145 30.6322C226.145 30.6322 226.52 28.8535 225.663 28.6076C224.806 28.365 225.178 31.0734 226.446 32.3974C226.35 32.3334 224.844 31.2453 224.456 28.9781C224.456 28.9814 224.453 28.9848 224.45 28.9848C224.559 29.8808 224.703 31.07 224.719 31.2148C224.678 31.0903 224.376 30.1637 224.023 29.3688C223.862 29.544 223.74 29.7293 223.682 29.9147C223.682 29.9147 223.737 29.5711 223.84 29.2543C223.827 29.2374 223.808 29.2173 223.788 29.1971C223.615 29.4633 223.397 29.8035 223.397 29.8035C223.397 29.8035 223.178 29.1162 223.197 28.6312C223.066 28.9277 222.899 29.2779 222.873 29.3318C222.889 29.2813 223.021 28.8399 223.034 28.4122C222.889 28.2707 222.726 28.119 222.546 27.9575C222.581 28.264 222.726 28.6918 222.758 28.7896C222.684 28.6784 222.334 28.1092 222.238 27.6879C222.17 28.0181 222.071 28.4325 222.071 28.4325C222.071 28.4325 222.064 27.8597 221.949 27.4455C221.881 27.3883 221.811 27.3343 221.743 27.2771C221.666 27.5667 221.657 28.3113 221.657 28.3113C221.657 28.3113 221.657 27.3107 221.413 27.1524C221.165 26.994 220.95 28.1226 220.95 28.1226L220.54 27.0008C220.658 26.1048 220.016 27.4455 220.325 28.1328C220.472 28.4663 220.296 28.2912 220.116 27.9238L219.862 29.6183C219.862 29.6183 219.58 31.8148 217.557 31.643C217.342 31.6227 217.156 31.5621 216.993 31.461C217.012 31.8384 216.973 32.2695 216.944 32.5288C216.928 32.6533 216.867 32.7175 216.816 32.6602C216.366 32.1717 215.744 31.8687 215.108 31.68C215.047 33.1958 214.986 34.1796 214.986 34.1796C214.986 34.1796 214.01 34.109 214.075 33.8191C214.206 33.223 214.315 32.4245 214.405 31.5149C213.301 31.3195 212.328 31.4071 212.328 31.4071C212.328 31.4071 212.017 31.1174 212.36 30.2887C212.521 29.9046 213.506 30.0024 214.517 30.2145C214.607 29.0288 214.672 27.7452 214.717 26.519C214.582 26.1955 214.46 25.8453 214.402 25.5218C214.27 26.2022 214.084 27.0376 214.084 27.0376C214.084 27.0376 214.334 24.2551 213.217 23.9857C212.126 23.723 213.603 26.0068 213.67 26.1113C213.606 26.0507 212.611 25.1344 212.232 24.3595C212.245 25.013 212.225 25.8384 212.225 25.8384C212.225 25.8384 211.879 24.3359 211.359 23.7228C210.887 23.1636 211.317 25.4071 211.394 25.8047C211.317 25.4846 210.941 23.989 210.479 23.861C209.959 23.7161 210.02 25.9462 210.02 25.9462L208.794 24.1169C208.653 22.3719 208.004 25.2589 208.855 26.347C209.706 27.4351 207.125 25.3937 207.455 23.5308C207.786 21.6645 206.794 26.3234 206.794 26.3234L206.826 23.2276C206.826 23.2276 206.447 25.2926 205.391 25.3801C205.391 25.3801 206.794 23.5139 205.882 22.537C204.967 21.5601 203.978 25.1578 204.823 27.7753C204.823 27.7753 203.927 26.0774 203.991 23.7462C203.696 25.6328 203.529 27.1553 203.741 27.2665C204.316 27.5596 205.738 30.332 206.039 30.6621C206.341 30.9956 207.157 32.7677 206.675 33.2863C206.19 33.8016 206.312 35.8363 206.312 35.8363C204.919 34.9839 205.221 32.8044 205.221 32.8044C205.221 32.8044 204.829 32.3261 204.617 32.7303C204.405 33.138 205.433 36.2035 205.555 36.4998C205.677 36.7963 204.89 38.7535 204.466 39.2318C204.043 39.7135 202.893 39.6395 202.893 39.6395C202.771 37.9047 203.741 37.7935 203.741 37.7935C203.921 37.0895 204.194 36.5 204.194 36.5C203.831 36.4258 203.59 34.4316 203.227 34.5056C202.865 34.5796 202.865 36.4628 202.832 37.3488C202.804 38.2348 200.958 41.8932 200.958 41.8932C199.808 40.3401 201.683 37.2376 201.683 37.2376C201.532 36.8335 201.413 34.765 201.413 34.765C201.413 34.765 200.807 36.2035 200.444 36.7963C200.081 37.3858 199.234 37.1635 199.234 37.1635C199.234 37.1635 198.146 35.6138 198.752 35.2433C199.356 34.8728 199.841 35.3914 199.841 35.3914C199.841 35.3914 200.685 34.3573 200.142 33.5454C199.597 32.7303 199.327 33.4713 199.115 33.6566C198.903 33.8384 196.544 33.5824 196.544 33.5824C196.666 32.2889 199.054 32.4371 199.054 32.4371L199.356 31.6219C199.234 28.3744 199.417 27.9299 200.264 26.3061C200.531 25.7906 200.537 24.6352 200.421 23.2945C200.036 23.1564 199.635 22.9037 199.474 22.4557C199.06 21.3137 199.972 24.1366 200.017 24.2816L199.038 22.6041C199.07 22.6983 199.474 23.9178 198.954 24.4534C198.954 24.4534 199.112 22.7691 198.299 22.678C197.487 22.5905 198.113 25.0092 199.416 26.0231C199.32 25.9759 197.802 25.2046 197.217 23.1497C197.294 23.4798 197.388 23.8639 197.471 24.2108L197.593 24.3692C197.593 24.3692 197.561 24.3692 197.51 24.3725C197.625 24.8508 197.715 25.2249 197.715 25.2249C197.715 25.2249 197.545 24.8544 197.304 24.3928C196.887 24.4601 196.21 24.6893 196.621 25.5179C196.621 25.5179 196.168 24.8745 196.049 24.3625C195.937 23.8808 196.293 25.7807 196.293 25.7807C196.293 25.7807 195.552 25.4911 195.17 25.0734C195.311 25.4811 195.468 25.983 195.484 26.0436C195.43 25.9324 194.698 24.4367 194.033 24.8174C193.34 25.2115 194.967 25.7471 194.967 25.7471C194.967 25.7471 194.088 25.7371 193.616 25.4911C193.821 25.8179 194.062 26.2423 194.091 26.2929C194.052 26.2593 193.404 25.6495 192.942 25.572C192.486 25.4944 193.539 26.5825 193.648 26.697C193.555 26.6061 192.814 25.9088 192.509 26.0704C192.178 26.2421 192.935 27.4211 192.935 27.4211L191.677 27.0203C191.035 26.1479 191.619 28.0208 192.431 28.1993C193.244 28.3813 191.186 28.5228 190.762 27.3505C190.348 26.2118 191.26 29.0347 191.305 29.1797L190.325 27.4988C190.358 27.5931 190.762 28.8159 190.242 29.3517C190.242 29.3517 190.399 27.6639 189.587 27.573C188.778 27.4855 189.407 29.9076 190.707 30.9181C190.634 30.8845 189.43 30.2781 188.746 28.7117L188.836 29.419C188.932 29.8233 189.006 30.123 189.006 30.123C189.006 30.123 188.967 30.0321 188.897 29.8873L189.134 31.7602C189.134 31.7602 189.574 34.6943 186.945 35.5636C185.465 36.052 184.483 34.5767 183.982 32.3196L183.821 33.5155C183.821 33.5155 183.478 36.4598 180.762 36.2306C178.727 36.0589 178.586 32.9495 179.237 29.5404C179.16 29.7627 179.039 29.9514 179.039 29.9514C179.039 29.9514 179.132 28.8161 178.74 28.4996C178.653 28.4759 178.563 28.4523 178.477 28.4323C178.271 28.5501 178.74 29.3922 178.791 29.48C178.759 29.4497 178.583 29.261 178.409 29.032C178.467 30.9455 178.612 33.9907 178.962 36.571C180.807 36.3554 182.608 36.2578 182.9 36.6452C183.523 37.4806 182.958 37.7738 182.958 37.7738C182.958 37.7738 181.18 37.6863 179.164 37.885C179.331 38.8013 179.53 39.6098 179.771 40.2128C179.889 40.5058 178.101 40.5766 178.101 40.5766C178.101 40.5766 177.992 39.5828 177.883 38.0501C176.721 38.2387 175.588 38.5486 174.766 39.0405C174.67 39.1011 174.557 39.0338 174.532 38.9091C174.442 38.4813 174.317 37.6054 174.647 37.2282C174.647 37.2282 176.105 36.9553 177.8 36.7196C177.662 34.3211 177.575 31.1647 177.8 28.3484C177.777 28.3079 177.751 28.2676 177.729 28.2339C177.719 28.2272 177.716 28.2205 177.71 28.217C177.69 28.2103 177.671 28.2036 177.649 28.1967C177.568 28.2776 177.649 28.9277 177.681 29.177C177.629 28.9344 177.491 28.3416 177.295 28.2674C177.045 28.1798 177.019 29.2679 177.019 29.2679L176.467 28.328C176.441 27.4756 176.056 28.8569 176.441 29.4194C176.827 29.9819 175.623 28.8905 175.832 27.9945C176.04 27.0951 175.437 29.3285 175.437 29.3285L175.53 27.8227C175.53 27.8227 175.337 28.6345 174.917 28.7896L174.949 29.3488C174.949 29.3488 175.177 32.32 172.496 32.9129C170.807 33.2903 169.899 31.2689 169.661 28.5167L168.265 32.3198C168.265 32.3198 166.66 36.9889 162.259 35.2608C158.57 33.8123 159.716 27.3847 162.75 21.5636C162.692 21.0786 162.644 20.4385 162.725 19.9466C162.866 19.0976 162.185 22.3687 162.185 22.3687C162.185 22.3687 161.232 21.2134 160.908 20.2026C160.859 21.0144 160.77 22.0116 160.77 22.0116C160.77 22.0116 160.644 18.7608 159.322 18.7002C158.031 18.6396 160.06 20.9269 160.16 21.0381C160.08 20.9875 158.796 20.1554 158.247 19.3503C158.356 20.0981 158.459 21.0481 158.459 21.0481C158.459 21.0481 157.839 19.4008 157.149 18.8113C156.526 18.2791 157.338 20.7179 157.496 21.1862C157.354 20.8224 156.706 19.2088 156.157 19.1649C155.541 19.1143 155.945 21.6612 155.945 21.6612L154.263 19.8319C153.839 17.8645 153.528 21.3175 154.664 22.3786C155.804 23.4397 152.536 21.6712 152.639 19.4579C152.741 17.2412 152.295 22.813 152.295 22.813L151.871 19.2489C151.871 19.2489 151.743 21.7047 150.546 22.0415C150.546 22.0415 151.878 19.5891 150.684 18.6661C150.594 18.5986 150.507 18.5616 150.424 18.5483C150.292 18.6055 150.154 18.6661 150.019 18.7267C149.326 19.5183 149.178 22.6849 150.247 24.9117C150.161 24.7938 148.809 22.86 148.658 19.9866C148.013 23.9111 147.413 28.762 148.189 30.2545C149.534 32.835 149.82 33.539 149.631 38.6998L150.109 39.9899C150.109 39.9899 153.903 39.754 154.096 41.8056C154.096 41.8056 150.35 42.2166 150.013 41.9235C149.679 41.6303 149.245 40.458 148.382 41.7483C147.518 43.0385 148.86 44.6791 148.86 44.6791C148.86 44.6791 149.631 43.8606 150.59 44.4467C151.55 45.0328 149.82 47.4953 149.82 47.4953C149.82 47.4953 148.478 47.8491 147.9 46.9091C147.326 45.9692 146.366 43.6819 146.366 43.6819C146.366 43.6819 146.173 46.9664 145.933 47.6131C145.933 47.6131 148.908 52.5382 147.085 55.0007C147.085 55.0007 144.157 49.1965 144.109 47.7883C144.061 46.3802 144.061 43.3887 143.483 43.2742C142.908 43.1563 142.523 46.3228 141.949 46.4408C141.949 46.4408 142.379 47.3774 142.668 48.4925C142.668 48.4925 144.205 48.6676 144.013 51.4232C144.013 51.4232 142.186 51.541 141.515 50.7798C140.844 50.0185 139.596 46.9091 139.785 46.4408C139.978 45.9692 141.612 41.1014 141.275 40.458C140.937 39.8112 140.315 40.5758 140.315 40.5758C140.315 40.5758 140.796 44.0355 138.588 45.3829C138.588 45.3829 138.777 42.159 138.01 41.3371C137.243 40.5153 138.539 37.7024 139.018 37.1735C139.499 36.6446 141.756 32.2484 142.668 31.7768C143.066 31.5714 142.61 28.1621 141.974 24.3859C141.753 25.9456 141.692 27.7816 141.692 27.7816C141.692 27.7816 141.303 25.2516 141.069 23.7222C141.676 27.6704 139.692 30.5034 139.583 30.6551C140.937 27.8355 140.34 23.4932 139.146 24.4129C137.952 25.3325 139.284 27.7849 139.284 27.7849C138.087 27.4481 137.958 24.9957 137.958 24.9957L137.534 28.5598C137.534 28.5598 137.088 22.9879 137.191 25.2011C137.294 27.4178 134.026 29.1862 135.162 28.1251C136.302 27.064 135.987 23.6077 135.566 25.5785L134.411 26.835C134.501 27.9939 134.616 29.1796 134.767 30.2846C136.831 30.0419 138.847 29.9341 139.175 30.3688C139.874 31.3053 139.239 31.632 139.239 31.632C139.239 31.632 137.249 31.5342 134.995 31.7532C135.178 32.784 135.403 33.6867 135.672 34.3606C135.804 34.6908 133.804 34.7683 133.804 34.7683C133.804 34.7683 133.682 33.6566 133.56 31.9385C132.257 32.1542 130.989 32.4977 130.071 33.0502C129.962 33.1142 129.836 33.0435 129.808 32.902C129.708 32.4237 129.567 31.4435 129.936 31.0189C129.936 31.0189 131.57 30.7157 133.464 30.453C133.377 28.9169 133.307 27.1079 133.31 25.245C133.271 25.2517 133.236 25.255 133.198 25.2583C132.809 25.7467 132.459 26.6091 132.344 26.9056C132.43 26.6429 132.678 25.8984 132.816 25.302C132.559 25.329 132.305 25.3492 132.055 25.366C131.657 26.0363 131.371 26.7942 131.371 26.7942C131.371 26.7942 131.448 26.07 131.541 25.3896C131.477 25.3896 131.413 25.3929 131.348 25.3929C130.71 26.1205 129.666 26.7876 129.666 26.7876C129.666 26.7876 130.34 26.0397 130.706 25.3896C130.318 25.3795 129.933 25.3526 129.554 25.3121C129.118 26.2923 129.06 27.7578 129.06 27.7578C129.06 27.7578 128.97 26.7606 128.918 25.9488C128.594 26.9593 127.641 28.1149 127.641 28.1149C127.641 28.1149 126.964 24.844 127.102 25.6928C127.253 26.5989 126.967 28.024 126.967 28.024C127.015 27.2222 126.761 26.872 126.411 26.7608C126.97 27.8388 127.089 28.1891 127.008 30.4158L127.22 30.985C127.22 30.985 128.896 30.8805 128.979 31.7902C128.979 31.7902 127.326 31.972 127.178 31.8407C127.028 31.7126 126.838 31.194 126.456 31.7632C126.074 32.3324 126.668 33.0602 126.668 33.0602C126.668 33.0602 127.008 32.6964 127.432 32.9558C127.856 33.2151 127.092 34.3032 127.092 34.3032C127.092 34.3032 126.498 34.458 126.244 34.0438C125.987 33.6295 125.564 32.6189 125.564 32.6189C125.564 32.6189 125.48 34.0708 125.374 34.3571C125.374 34.3571 126.687 36.5332 125.882 37.6213C125.882 37.6213 124.588 35.0544 124.565 34.4346C124.546 33.8115 124.546 32.4908 124.289 32.4369C124.036 32.3863 123.866 33.7843 123.612 33.8382C123.612 33.8382 123.801 34.2526 123.93 34.7443C123.93 34.7443 124.61 34.8218 124.524 36.0411C124.524 36.0411 123.718 36.0917 123.419 35.7549C123.124 35.418 122.572 34.0436 122.655 33.838C122.742 33.6291 123.464 31.4765 123.313 31.1936C123.166 30.9073 122.89 31.2441 122.89 31.2441C122.89 31.2441 123.101 32.7736 122.126 33.3697C122.126 33.3697 122.209 31.9448 121.872 31.581C121.532 31.2205 122.103 29.9741 122.318 29.7417C122.53 29.5093 123.525 27.5622 123.93 27.3566C124.103 27.2657 123.91 25.8069 123.638 24.1732C123.39 24.8099 123.214 25.3219 123.188 25.3927C123.204 25.2749 123.345 24.3147 123.49 23.3311C123.477 23.2603 123.464 23.1863 123.451 23.1121C122.703 25.743 120.912 27.03 120.912 27.03C122.084 25.7801 122.723 23.6882 122.636 22.6405C122.347 22.5057 122.052 22.3676 121.747 22.2294C121.047 22.8998 121.374 24.7021 121.374 24.7021C120.585 24.1093 121.008 22.27 121.037 22.1452L119.882 24.7863C119.917 24.6179 120.505 21.9365 120.53 21.6905C120.527 21.6872 120.527 21.6872 120.524 21.6872C120.508 21.7275 120.472 21.8489 120.415 22.0779C119.965 23.833 117.092 24.2574 118.2 23.7622C119.304 23.2669 119.891 20.4844 119.108 21.8959L117.413 22.829C117.455 22.7414 118.302 20.9593 117.84 20.8246C117.407 20.6965 116.501 21.8251 116.341 22.0272C116.482 21.8318 117.243 20.774 117.333 20.3832C117.256 20.3529 117.182 20.3226 117.101 20.2923C116.488 20.5855 115.734 21.5286 115.67 21.6094C115.705 21.5286 115.984 20.8716 116.228 20.3563C115.602 20.8379 114.386 21.1175 114.386 21.1175C114.386 21.1175 115.814 20.3091 115.837 19.8205C115.599 19.733 115.362 19.6487 115.124 19.5612C114.379 19.8778 113.795 21.4375 113.712 21.6667C113.734 21.5252 113.885 20.8246 114.023 20.2451C113.831 20.5214 113.558 20.7874 113.294 21.0064C113.205 21.7912 112.823 23.031 111.323 23.4285C109.651 23.8698 108.82 21.4577 108.739 18.5067C108.662 18.1294 108.694 17.7286 108.694 17.7286L108.28 19.3894C108.28 19.3894 108.428 16.7282 108.335 17.7791C108.245 18.8336 106.659 19.4669 107.24 19.0356C107.818 18.6043 107.895 16.9537 107.58 17.8567L106.707 18.6179C106.707 18.6179 107.048 17.4389 106.765 17.4254C106.524 17.4153 106.149 18.089 106.046 18.2811C106.158 18.0385 106.649 16.9876 106.341 17.1963C105.995 17.432 105.609 18.1699 105.609 18.1699C105.609 18.1699 105.715 17.7252 105.815 17.3783C105.506 17.7388 104.842 18.0656 104.842 18.0656C104.842 18.0656 105.969 17.0651 105.368 17.0112C104.768 16.9573 104.508 18.49 104.508 18.49C104.508 18.49 104.528 18.0184 104.556 17.631C104.441 17.8836 104.235 18.1599 104.075 18.3417C104.014 19.1132 103.674 20.5009 102.091 20.9186C100.563 21.323 99.7379 19.3994 99.5453 16.8123L99.5101 17.5466C99.5101 17.5466 99.4009 16.6169 99.3527 16.6169H99.3432C99.295 17.2569 98.4764 17.6983 98.7814 17.3311C99.1056 16.937 98.9451 15.8387 98.8553 16.4923L98.3802 17.156C98.3802 17.156 98.4541 16.3172 98.2647 16.3644C98.1074 16.4014 97.9532 16.8933 97.9051 17.0517C97.9339 16.9203 98.0206 16.5565 98.0303 16.3747C97.9789 16.3814 97.9307 16.3916 97.8794 16.3983C97.7189 16.6543 97.6034 17.072 97.6034 17.072C97.6034 17.072 97.6161 16.7587 97.6354 16.5128C97.4877 16.789 97.1314 17.1056 97.0864 17.1428C97.1185 17.0922 97.3881 16.7015 97.4267 16.4894C97.3015 16.5163 97.1796 16.5466 97.0607 16.5769C96.9034 16.9104 96.9164 17.4866 96.9164 17.4866C96.9164 17.4866 96.8714 17.17 96.8393 16.9071C96.7622 17.2473 96.4926 17.665 96.4926 17.665C96.4926 17.665 96.2262 16.6409 96.2839 16.9104C96.3449 17.1934 96.2871 17.6683 96.2871 17.6683C96.2871 17.5269 96.2614 17.436 96.223 17.3752C96.2712 18.1634 96.3417 19.0258 96.4476 19.8073C97.4524 19.6895 98.4316 19.6389 98.5889 19.8479C98.9292 20.3026 98.6209 20.461 98.6209 20.461C98.6209 20.461 97.6547 20.4137 96.5599 20.5216C96.6497 21.0201 96.7557 21.4615 96.8873 21.7881C96.9514 21.9465 95.9821 21.9835 95.9821 21.9835C95.9821 21.9835 95.9211 21.4446 95.8634 20.6125C95.2309 20.7136 94.6146 20.882 94.1684 21.1514C94.117 21.1817 94.0529 21.148 94.0399 21.0806C93.9917 20.8448 93.9244 20.3699 94.1041 20.1642C94.1041 20.1642 94.897 20.0161 95.815 19.8913C95.7732 19.1704 95.7411 18.3249 95.7411 17.4523C95.7316 17.4389 95.725 17.422 95.7186 17.4051C95.6416 17.4557 95.587 17.4993 95.587 17.4993L95.6288 17.2434C95.6192 17.2264 95.6127 17.2064 95.6031 17.1894C95.4169 17.3006 95.2339 17.4084 95.0573 17.523C95.2339 17.6544 95.3944 17.725 95.3944 17.725C95.2178 17.8328 95.0221 17.7689 94.852 17.6544C94.7879 17.6983 94.7267 17.7386 94.6658 17.7825L95.0189 18.537C94.99 18.4965 94.7461 18.1799 94.5181 17.8834C94.4699 17.9171 94.4217 17.9474 94.3769 17.9812C94.5021 18.7527 94.1009 19.7396 94.2002 19.1501C94.2516 18.857 94.1425 18.5034 94.0172 18.2474C93.9274 18.3114 93.8406 18.3788 93.754 18.4461L93.6576 19.3152C93.6576 19.3152 93.5196 18.9918 93.3687 18.756C93.2402 18.8605 93.1184 18.9648 92.9963 19.0693C93.0156 19.3152 93.0638 19.5679 93.0797 19.6521C93.0604 19.5712 93.0027 19.3388 92.9354 19.1232C92.8456 19.2007 92.7587 19.2782 92.6721 19.3556C92.6978 19.6149 92.7396 19.8475 92.7492 19.9014C92.7267 19.8575 92.6401 19.6723 92.5469 19.4703C92.5084 19.5039 92.473 19.5376 92.4346 19.5748C92.3768 19.9925 92.2291 20.4505 92.2291 20.4505C92.2291 20.4505 92.2709 20.0631 92.2579 19.7398C92.1359 19.8543 92.0172 19.9689 91.8983 20.0834C91.9849 20.4978 92.2161 20.9155 92.245 20.9627C92.2097 20.9188 91.9913 20.6428 91.8212 20.4068C91.9367 20.8482 91.8887 21.5422 91.8887 21.5422C91.8887 21.5422 91.2756 20.9424 91.1858 20.8651C91.189 20.8751 91.1986 20.8854 91.2115 20.8987C91.4329 21.1414 91.6384 21.6567 91.6609 21.7208C91.4459 21.3367 91.2467 21.4109 91.0894 21.5996C91.3302 22.9236 91.6544 24.1699 91.6544 24.1699C91.6544 24.1699 91.0156 22.8122 90.4377 21.586L90.3927 21.6332C91.4714 24.8099 90.6109 27.7879 90.6109 27.7879C90.8678 25.7532 90.2804 23.4928 89.6125 22.4451C89.2208 22.8494 88.8357 23.2233 88.4408 23.5601C88.7522 24.4764 89.5643 25.2343 89.5643 25.2343C88.8677 25.3658 88.306 24.574 87.9721 23.9442C87.9143 23.9881 87.8566 24.0284 87.7986 24.0723L88.2576 26.7268C88.2576 26.7268 87.7472 25.3894 87.346 24.3755C87.2882 24.4125 87.2271 24.4463 87.1662 24.4833C87.2303 26.4202 85.4648 28.6808 86.0811 27.3635C86.4021 26.6762 86.3155 25.6523 86.1452 24.9414C85.9752 24.9986 85.8017 25.0492 85.6219 25.0862L84.7744 27.259C84.7744 27.259 84.5657 25.7296 84.2286 25.1873C84.1356 25.1806 84.0424 25.1773 83.9461 25.167C83.8883 25.1604 83.8274 25.157 83.7694 25.157C83.365 25.7331 83.2911 27.5758 83.2911 27.5758C83.2911 27.5758 83.3393 25.7768 83.1884 25.1806C83.092 25.1907 82.9958 25.2076 82.8994 25.2278C82.5014 26.1105 82.4211 27.7881 82.4211 27.7881C82.4211 27.7881 82.2477 26.8584 82.1386 26.1139C81.8817 27.1077 80.9957 28.4484 80.9412 28.5326C80.983 28.4147 81.9042 25.969 81.304 25.8984C81.1981 25.9657 81.0921 26.0365 80.983 26.1107C80.8321 26.3297 80.6747 26.552 80.5079 26.7744C80.2351 27.8558 80.6363 29.5367 80.6747 29.6917C80.6297 29.5839 80.3056 28.7654 80.0616 28.0814C80.0552 29.1628 79.5449 30.6619 79.5449 30.6619C79.5449 30.6619 78.9991 29.6514 78.6492 29.018C78.6267 29.0416 78.6074 29.0652 78.5851 29.0853C78.8194 29.8196 78.9222 30.7393 78.9317 30.864C78.4052 28.6509 76.7584 31.0897 76.7584 31.0897L76.7423 30.8371C76.4759 31.0627 76.2031 31.2851 75.9173 31.5041C76.2576 33.2761 76.6075 35.0884 76.906 36.6178C78.0136 36.4697 78.7486 36.3619 78.7904 36.3282C78.9797 36.1867 78.8995 36.975 78.8995 36.975C78.8995 36.975 78.1579 37.0558 77.0151 37.1873C77.1179 37.6959 77.2077 38.1675 77.2911 38.5819C77.9686 38.4876 78.3889 38.4202 78.4212 38.3965C78.6106 38.2551 78.5303 39.04 78.5303 39.04C78.5303 39.04 78.1097 39.0872 77.41 39.168C77.5737 39.9765 77.6828 40.4818 77.7053 40.5154C77.8465 40.7277 77.1981 40.7311 77.1981 40.7311C77.1981 40.7311 77.0922 40.1583 76.9221 39.222C76.3217 39.2894 75.5867 39.3737 74.7777 39.4679C74.9318 40.2158 75.0314 40.6772 75.0537 40.711C75.1917 40.92 74.5433 40.9267 74.5433 40.9267C74.5433 40.9267 74.4469 40.3944 74.2864 39.522C73.609 39.5995 72.8933 39.6837 72.1613 39.768C72.3316 40.6 72.4439 41.1187 72.4664 41.1559C72.6044 41.3649 71.956 41.3715 71.956 41.3715C71.956 41.3715 71.8501 40.7821 71.6734 39.8252C71.1694 39.8858 70.6654 39.9431 70.1678 40.0037C70.2769 40.5225 70.3444 40.8324 70.3636 40.8627C70.5016 41.0717 69.8532 41.0784 69.8532 41.0784C69.8532 41.0784 69.7859 40.7012 69.667 40.0645C69.0057 40.142 68.3637 40.2195 67.7699 40.2935C67.8854 40.856 67.9624 41.1962 67.9817 41.2265C68.1197 41.4388 67.4714 41.4422 67.4714 41.4422C67.4714 41.4422 67.3975 41.0378 67.2724 40.3574C66.8519 40.408 66.4602 40.4586 66.1103 40.5056C65.5613 41.7857 64.945 42.9513 64.3382 43.5341C62.5726 45.2387 63.8761 54.9237 59.6899 55.8298C59.6899 55.8298 60.0623 62.2068 61.7348 61.6374C63.3302 61.0984 64.3351 60.3606 65.2307 61.4756L65.2469 61.4554C65.2469 61.4554 65.2469 61.4723 65.2469 61.4959C65.2853 61.5431 65.3239 61.5901 65.3624 61.6474C66.2901 63.0084 65.7347 60.6301 67.2211 60.5154C68.7074 60.4009 71.2178 59.6092 71.59 58.3595C71.9624 57.1097 72.1486 56.3148 72.8003 55.9744C72.8003 55.9744 72.3572 56.9413 72.4279 58.0496C72.4952 59.1243 69.9977 60.5999 68.6399 61.3105C68.887 61.442 69.2114 61.5329 69.6158 61.4689C70.6174 61.3105 69.8759 63.4397 70.0941 63.7563C70.3124 64.0762 70.8773 63.8641 71.8373 62.6412C72.7939 61.415 73.4905 61.8428 73.9688 63.1195C74.4503 64.3963 71.9657 65.8313 72.7939 66.7376C73.6221 67.6403 71.2274 68.705 72.7939 68.6005C74.3637 68.4926 72.0974 70.4095 72.7073 69.7694C73.3172 69.1327 70.5212 69.7291 69.3976 70.1433C68.9611 70.3017 72.4472 71.046 71.7057 70.9921C70.9641 70.9415 65.8696 69.9815 69.6576 69.2909C73.4489 68.6003 72.1424 67.2696 71.6191 67.0036C71.0957 66.7374 72.0524 65.299 73.0124 64.2885C73.969 63.2779 72.5341 62.6918 71.5324 63.7057C70.5276 64.7162 68.7878 64.184 69.0927 62.5873C69.3014 61.4857 68.3093 62.1056 67.6737 62.5973C67.3013 63.6718 67.0862 65.0025 65.5936 65.117C65.3496 65.1373 65.1089 65.1877 64.8681 65.2585C64.6467 66.1412 64.3096 67.0339 63.7831 67.7581C62.1074 70.0589 66.502 75.1693 65.9434 79.2554C65.9177 79.4441 65.8857 79.6125 65.8504 79.7776C66.5213 80.869 67.5454 82.4084 68.3832 82.2367C69.6383 81.9807 69.6383 81.0441 69.5678 80.3637C69.5003 79.6798 71.3815 83.089 69.7797 83.5134C68.1745 83.9412 67.8246 83.1732 67.4779 84.962C67.1281 86.7507 65.9434 86.7507 66.1521 87.6873C66.3608 88.6239 68.4539 89.732 67.8953 90.4126C67.3367 91.093 67.4779 89.8164 66.6402 89.3918C65.8022 88.9641 64.3384 87.2629 65.5262 86.2388C66.7109 85.218 67.6161 83.8536 66.9901 83.089C66.5888 82.5971 65.8441 81.6574 65.3626 81.0408C64.3127 82.7016 62.4413 81.8896 62.9453 84.962C63.5714 88.7956 63.8506 89.8162 61.1316 91.605C58.4127 93.3937 59.809 96.2032 59.809 96.2032C59.809 96.2032 58.2745 98.3322 57.4367 97.6518C56.5988 96.9714 56.7402 95.607 56.7402 95.607C56.7402 95.607 57.2987 97.0556 57.9248 96.3752C58.5541 95.6915 59.5973 93.8183 59.0419 92.2014C58.4834 90.5844 56.3196 91.521 56.5315 89.5602C56.7338 87.6637 58.5057 87.1248 58.6148 87.0945C58.4961 87.1989 56.5667 88.9068 57.6452 89.7322C58.7624 90.5846 61.552 90.3284 62.1074 89.0485C62.6659 87.7717 62.1074 85.5586 62.1074 85.5586C62.1074 85.5586 60.7847 85.7303 61.8987 82.6615C63.0158 79.596 64.5471 78.5752 64.5471 78.5752C64.5471 78.5752 64.9677 74.9977 63.5712 74.3171C62.1781 73.6332 62.5952 76.1058 62.5952 76.1058C62.5952 76.1058 61.7607 75.8499 61.2726 77.2984C60.7847 78.7436 60.5729 75.0817 61.2019 73.293C61.828 71.5042 62.1072 69.5471 61.0607 70.1433C60.0175 70.7394 60.3642 67.7581 60.3642 67.7581L60.5086 67.5728C60.2132 67.6706 59.9307 67.7176 59.6674 67.6739C59.5069 67.647 59.2823 67.5964 59.0093 67.5258C57.2404 68.0783 54.6242 69.3853 54.7172 72.2722C54.8552 76.6145 54.4379 79.3398 52.5569 79.5116C50.6725 79.68 48.7208 80.0235 48.3034 81.5563C47.8829 83.089 49.138 84.1098 50.8812 84.5376C51.0287 84.5712 51.1251 84.6251 51.1829 84.6893C51.5136 84.5006 51.8569 84.2546 52.1363 83.9414C52.9742 83.0015 53.3241 84.3658 54.0207 85.6426C54.3224 86.1984 54.5599 86.4477 54.7302 86.5522C54.3674 86.4849 53.7606 86.2659 53.1829 85.5584C52.5248 84.7532 51.9406 85.4775 51.5104 85.7032C51.6966 86.2488 51.748 86.8788 51.3017 87.3471C50.3258 88.3679 51.3692 90.9246 51.3692 90.9246C51.3692 90.9246 51.1606 91.8612 50.464 91.8612C49.7674 91.8612 51.1606 91.7769 50.5347 90.7528C49.9054 89.732 49.2796 89.6445 49.9761 88.7081C50.5733 87.9096 51.3147 86.1176 50.7818 85.4505C49.6101 86.3566 46.4192 87.5492 43.4209 87.4313C39.0295 87.2629 39.2382 88.3679 39.5881 89.6445C39.9347 90.9246 38.6121 90.7528 38.6121 90.7528L39.7261 92.6258C39.7261 92.6258 37.1451 91.5208 37.9829 90.6686C38.8208 89.8164 39.238 89.3918 39.0293 88.7081C38.8206 88.0277 38.5414 86.1545 41.8189 86.4107C45.0966 86.6667 51.0899 86.0705 49.2087 84.9622C47.3275 83.8538 44.5379 82.4086 47.1863 80.5323C49.8379 78.6594 52.7656 78.8312 52.207 78.1472C51.6484 77.4668 51.5104 74.9133 52.7656 73.549C52.9036 73.3975 53.0127 73.2458 53.1059 73.0976C52.711 73.586 51.7351 74.4316 49.9052 74.0609C47.395 73.549 46.8396 76.8705 46.8396 76.8705L45.2346 76.702C45.2346 76.702 42.445 78.1472 43.7001 78.9994C44.9552 79.8517 40.9812 79.5114 42.445 78.147C43.9088 76.786 45.5845 76.6143 45.3053 75.9339C45.0259 75.2535 47.6039 73.4646 49.1382 73.5488C50.6727 73.633 52.069 70.2273 50.2553 71.0794C48.4416 71.9318 45.1639 69.8869 47.6744 69.2065C50.1846 68.5261 47.3277 66.8216 46.4897 67.1618C45.79 67.4447 45.3374 66.4275 45.2057 66.0804C45.3053 66.2891 45.6263 66.6935 46.6277 66.5654C47.9536 66.3936 51.5811 67.9297 49.9759 69.1223C48.3707 70.3115 49.8379 70.5675 50.8812 70.1431C51.9276 69.7153 52.4157 72.6124 51.9983 72.6966C51.5809 72.7842 53.6708 72.6124 53.1829 70.8237C53.0031 70.1667 53.305 69.7895 53.7544 69.5671C54.1814 68.5127 54.6565 67.0002 54.4639 65.875C53.1445 65.2483 51.8732 64.477 51.0162 63.591C50.8589 63.601 50.6984 63.601 50.5347 63.5843C50.1848 63.554 47.1158 54.9839 44.8174 56.6009C43.1867 57.7462 43.9315 59.2757 43.4209 60.01C43.4498 60.01 43.4691 60.0066 43.4691 60.0066C43.4691 60.0066 43.9347 61.0307 42.6794 61.5394C41.4242 62.0513 41.3761 63.6415 42.0278 63.7561C42.6794 63.8672 42.3072 63.7561 43.5623 63.0721C44.7692 62.4187 43.9122 64.0221 43.8449 64.1468C43.8706 64.0457 44.1177 63.0554 43.1899 63.7561C42.214 64.4937 41.3762 64.9486 41.1451 64.2647C40.9107 63.5843 40.8657 62.9037 40.4485 63.3011C40.0279 63.6986 39.7487 64.4937 40.5383 64.9484C41.3056 65.3897 40.0216 66.1982 39.9379 66.2488C39.9861 66.1915 40.5158 65.5582 40.0759 65.2888C39.6106 65.0059 39.4244 63.1868 40.1209 62.9037C40.8175 62.6208 41.1899 63.0721 41.1899 63.0721C41.1899 63.0721 41.0037 61.7684 41.9346 61.3709C42.8624 60.9735 41.5622 60.8017 41.8864 60.4344C38.8208 60.2626 39.6554 64.3522 37.5655 63.6683C35.4724 62.9879 33.5912 63.2439 34.0793 65.0326C34.5672 66.8214 34.9846 68.6101 33.5914 68.6101C32.1949 68.6101 29.9639 69.5467 30.1052 67.586C30.1437 67.0437 30.2562 66.4845 30.4135 65.9893C30.8211 64.7025 31.5145 63.83 31.9157 64.6924C31.9157 64.6924 30.6606 65.2044 30.8018 66.9056C30.9398 68.6101 33.8708 68.0981 33.3827 67.1616C32.8915 66.225 32.6155 62.8193 33.7294 62.5633C34.8466 62.3073 36.1017 62.1355 37.0069 60.6904C37.9122 59.2418 41.0517 60.2626 42.0276 59.582C43.0036 58.9016 40.6311 58.0493 42.445 56.5165C44.2587 54.9837 48.0949 52.3426 48.2329 54.2998C48.3709 56.2603 49.5587 60.1782 50.2553 58.8139C50.3067 58.7094 50.3644 58.6118 50.4222 58.5207C50.3869 58.3656 50.3324 58.1838 50.2553 57.9648C49.4176 55.5797 49.8379 54.2996 49.8379 54.2996C49.8379 54.2996 46.4191 52.5984 46.9071 50.0416C47.395 47.488 44.2587 48.5963 44.8847 45.1873C45.514 41.7816 42.8624 36.5027 41.5397 36.331C40.9362 36.2534 39.7581 36.7284 38.6121 36.6578C38.2911 37.5066 37.9283 38.524 37.6619 39.4707C38.5896 39.949 39.4724 40.4678 39.5301 40.7474C39.6522 41.3436 39.3182 41.3033 39.3182 41.3033C39.3182 41.3033 38.4869 40.7002 37.4821 40.1613C37.3666 40.6532 37.2927 41.1012 37.2797 41.465C37.2734 41.6435 36.4066 41.1146 36.4066 41.1146C36.4066 41.1146 36.5639 40.6026 36.8335 39.8345C36.2397 39.5616 35.6297 39.3494 35.1321 39.3292C35.0744 39.3258 35.0357 39.2586 35.0487 39.1911C35.0969 38.9587 35.2219 38.4971 35.4595 38.4229C35.4595 38.4229 36.2138 38.7531 37.0742 39.1741C37.36 38.4027 37.7226 37.4863 38.1336 36.5903C37.0936 36.3613 36.1497 35.5258 35.7966 33.2049C35.3247 33.4339 34.7693 33.9661 34.7982 35.2295C34.7982 35.2295 34.1112 33.06 35.1192 31.9114C35.1064 31.9047 35.0967 31.898 35.0839 31.8944C34.7116 32.1976 34.0534 32.8241 33.7388 33.6562C33.7388 33.6562 34.108 32.1404 34.0951 31.3992C33.9666 31.3284 33.835 31.2475 33.6938 31.1599C33.3792 31.5137 33.1352 32.3322 32.9941 32.8981C33.1352 32.2075 33.3407 31.1497 33.2798 31.0757C33.2157 30.9949 32.3168 32.0829 32.3168 32.0829C32.3168 32.0829 32.9588 30.9073 32.6378 30.5704C32.3329 30.2505 31.7776 32.3086 31.7198 32.5176C31.7582 32.3188 32.1563 30.2572 31.9092 29.8529C31.8803 29.8259 31.8514 29.8023 31.8194 29.7753C31.5241 29.6439 30.8659 30.3009 30.6702 30.5063C30.8211 30.3245 31.2383 29.7854 31.3347 29.3374C31.126 29.1453 30.9141 28.9399 30.7022 28.7209C30.0891 28.8523 29.4985 29.8056 30.0057 30.8264C29.6686 30.2572 28.9527 28.8659 29.6044 28.3807C30.4326 27.7609 28.651 28.0572 28.4552 29.7281C28.4552 29.7281 28.5932 27.5384 27.9481 27.6496C27.3061 27.7607 28.0861 30.2301 26.9882 31.4629C27.0267 31.3349 27.9737 28.3032 26.9851 27.4239C25.9739 26.5278 26.6159 29.6709 26.6159 29.6709C26.6159 29.6709 25.5597 29.0139 25.7427 27.6867C25.8647 26.821 25.2419 27.1645 24.847 27.8182C24.8695 27.8687 24.892 27.9227 24.9209 27.973C24.9209 27.973 24.8791 27.936 24.8181 27.8652C24.619 28.2054 24.4874 28.6231 24.5485 28.9972C24.6769 29.772 24.0797 28.1651 24.1216 26.8379C23.8615 26.3157 23.6785 25.6556 23.8294 24.965C23.8133 24.965 23.8006 24.9616 23.7844 24.9583C23.5887 25.4569 23.2932 26.3732 23.3607 27.259C23.3607 27.259 22.7892 24.3283 22.4009 24.8874C22.1056 25.3119 22.2917 26.5044 22.4297 27.1714C22.2756 26.4977 21.9964 25.3288 21.9064 25.3018C21.8166 25.2715 21.4827 26.7637 21.4827 26.7637C21.4827 26.7637 21.5597 25.3522 21.1424 25.2546C20.7604 25.167 21.0846 27.1411 21.1392 27.4713C21.0557 27.1445 20.5711 25.2312 20.2082 25.0728C19.8552 24.9211 19.4892 26.1373 19.4057 26.4304C19.4796 26.1003 19.8102 24.5272 19.0943 24.6248C18.3239 24.7293 17.8808 26.481 19.0718 27.1445C18.6321 26.9121 17.2261 26.09 17.6207 25.2109C18.0797 24.1734 16.6705 25.5006 17.1681 27.0603C17.0879 26.8649 16.372 25.1232 15.8873 25.5881C15.3769 26.0765 17.0622 27.7407 16.6127 29.4824C16.6127 29.4824 16.2019 26.144 14.9596 25.9822C13.7172 25.8205 15.5599 28.1517 15.5599 28.1517C15.5599 28.1517 14.3753 28.2259 13.9934 26.9625C13.6081 25.7026 12.8731 27.9697 13.4926 28.8287C13.8361 29.3037 13.1491 28.7378 12.6034 27.8888C12.6387 28.1751 12.7287 28.4817 12.8924 28.8218C12.8185 28.7477 11.4863 27.38 11.8009 25.8472C11.7816 25.8539 11.7625 25.8573 11.7432 25.8642C11.5441 26.3728 11.2744 27.2554 11.3387 28.1078C11.3387 28.1078 11.0819 26.8007 10.7963 26.1001C10.6069 26.1473 10.4207 26.191 10.2346 26.2382C10.1864 26.7435 10.2923 27.4341 10.3855 27.9191C10.2602 27.3835 10.0772 26.6223 9.96175 26.3021C9.904 26.3155 9.84624 26.3291 9.79168 26.3391C9.66006 26.7366 9.46112 27.6159 9.46112 27.6159C9.46112 27.6159 9.49956 26.8816 9.36474 26.4369C9.22037 26.4672 9.079 26.4975 8.941 26.5245C8.91531 27.1409 9.1015 28.2324 9.124 28.3571C9.09512 28.2392 8.85756 27.2724 8.59112 26.5886C8.23149 26.6526 7.888 26.7031 7.56062 26.7368C7.47718 26.9692 7.41287 27.1848 7.384 27.2826C7.40331 27.1884 7.44812 26.9827 7.48356 26.7437C7.05981 26.7842 6.67131 26.7909 6.31825 26.7537C6.32781 27.2253 6.53968 27.7104 7.05025 27.9935C6.70037 27.8115 5.74374 27.2556 5.56074 26.5955C5.42593 26.545 5.2975 26.4843 5.17881 26.4137C5.03762 26.8181 4.96693 27.3503 5.14675 27.9128C5.0665 27.7174 4.35062 25.9757 3.86593 26.4373C3.35556 26.9292 5.04081 28.5899 4.59137 30.3349C4.59137 30.3349 4.18056 26.9932 2.93818 26.8314C1.69581 26.673 3.53856 29.0009 3.53856 29.0009C3.53856 29.0009 2.35393 29.0784 1.96881 27.8152C1.58687 26.5554 0.851684 28.8191 1.47118 29.6815C2.09068 30.5405 -0.647566 27.9703 0.145371 26.5048C0.938309 25.0393 3.83068 24.3959 3.83068 24.3959L4.09712 24.3287C3.27849 18.7129 7.06337 -4.21858e-05 7.06337 -4.21858e-05H236.702L508.513 0.000149962C508.513 0.000149962 512.3 18.7145 511.481 24.3273L511.745 24.3969C511.745 24.3969 514.639 25.038 515.433 26.504C516.226 27.9707 513.488 30.5417 514.106 29.6813ZM74.6744 38.9323C75.4832 38.8278 76.2184 38.7302 76.8188 38.6494C76.7417 38.225 76.6519 37.75 76.5587 37.2378C75.9167 37.312 75.1752 37.3962 74.3886 37.4871C74.4914 38.0196 74.5877 38.5046 74.6744 38.9323ZM72.0614 39.2625C72.7932 39.1716 73.5124 39.0807 74.1929 38.9929C74.1126 38.5616 74.0228 38.0733 73.9264 37.541C73.2267 37.6219 72.5011 37.7061 71.7724 37.7903C71.8784 38.3295 71.9746 38.828 72.0614 39.2625ZM70.0709 39.5084C70.5685 39.4478 71.0757 39.3837 71.5829 39.3231C71.5026 38.8818 71.4128 38.3832 71.3132 37.8442C70.7931 37.9048 70.2764 37.9688 69.7724 38.0296C69.8849 38.5888 69.9842 39.0907 70.0709 39.5084ZM67.6729 39.805C68.2667 39.7308 68.9121 39.6534 69.5798 39.5692C69.5027 39.1448 69.4097 38.6429 69.307 38.0837C68.62 38.1679 67.9651 38.2488 67.3776 38.323C67.4867 38.8819 67.5863 39.3839 67.6729 39.805ZM66.9218 38.4304C66.742 38.9323 66.5462 39.4545 66.3376 39.9665C66.6008 39.9362 66.8834 39.9025 67.1851 39.8654C67.108 39.4478 67.0182 38.9662 66.9218 38.4304ZM67.9682 35.1831C67.9682 35.1831 67.6793 36.2072 67.2267 37.5546C67.2428 37.6489 67.2619 37.74 67.2812 37.8309C67.8655 37.7602 68.5204 37.6794 69.217 37.5951C69.0724 36.8036 68.9087 35.9243 68.7387 35.0013C68.4852 35.0652 68.2283 35.1258 67.9682 35.1831ZM69.1656 34.9001C69.3454 35.84 69.5219 36.7394 69.676 37.5379C70.18 37.4739 70.6967 37.4098 71.2201 37.3458C71.0596 36.4801 70.8861 35.5302 70.7031 34.5499C70.2091 34.7181 69.6953 34.8395 69.1656 34.9001ZM73.1174 33.3101C72.4786 33.7448 71.8141 34.1186 71.1143 34.3982C71.3101 35.4156 71.4996 36.4026 71.6729 37.2886C72.4015 37.1977 73.1303 37.1066 73.8301 37.019C73.6214 35.8906 73.3838 34.607 73.1399 33.2965C73.1335 33.2999 73.1271 33.3068 73.1174 33.3101ZM73.5347 33.0809C73.798 34.4519 74.0547 35.7926 74.2859 36.9616C75.0724 36.8605 75.8106 36.7662 76.456 36.6786C76.1832 35.2065 75.8654 33.4817 75.5476 31.7839C74.9183 32.2421 74.2474 32.6801 73.5347 33.0809ZM175.088 27.4485C175.008 27.3507 174.921 27.3373 174.838 27.3845L174.908 28.6444C175.098 28.3681 175.393 27.8192 175.088 27.4485ZM200.285 21.9947C200.015 21.6948 200.092 22.1295 200.352 22.5775C200.333 22.3855 200.31 22.1901 200.285 21.9947ZM216.371 26.64C216.095 26.7073 215.876 26.9735 215.832 27.6102C215.832 27.6102 215.748 26.3504 215.973 25.6058C215.992 25.5419 216.002 25.5047 216.002 25.4946C215.934 25.6158 215.247 27.5732 215.247 27.5732C215.247 27.5732 215.238 27.5529 215.219 27.526C215.206 28.5365 215.183 29.5001 215.154 30.3625C215.63 30.4837 216.073 30.6118 216.39 30.7094C215.989 29.7763 216.031 28.2536 216.371 26.64ZM227.051 28.8736C227.009 28.786 226.971 28.6882 226.948 28.5873C226.775 27.8361 226.91 28.5873 227.061 29.3858C227.058 29.2171 227.054 29.0454 227.051 28.8736ZM241.77 25.181C241.851 25.3083 241.937 25.4307 242.027 25.5496C241.837 25.1511 241.746 24.7664 241.746 24.7664L241.77 25.181ZM288.631 28.5873C288.607 28.6896 288.571 28.7849 288.527 28.8744C288.524 29.0452 288.521 29.2158 288.518 29.3846C288.669 28.5865 288.805 27.8373 288.631 28.5873ZM300.359 27.5248C300.342 27.5541 300.33 27.5746 300.33 27.5746C300.33 27.5746 299.393 24.9054 299.605 25.6058C299.831 26.3515 299.747 27.6092 299.747 27.6092C299.702 26.9727 299.484 26.7075 299.207 26.6408C299.55 28.2524 299.591 29.7751 299.19 30.7092C299.507 30.6122 299.948 30.4835 300.424 30.3641C300.396 29.4995 300.372 28.5356 300.359 27.5248ZM315.294 21.9951C315.27 22.1905 315.247 22.3849 315.225 22.5771C315.486 22.1281 315.562 21.6952 315.294 21.9951ZM336.279 29.2289C336.279 29.2303 336.279 29.2317 336.279 29.2331C336.279 29.2301 336.279 29.2272 336.279 29.2244C336.279 29.2258 336.279 29.2274 336.279 29.2289ZM340.489 27.4502C340.186 27.8194 340.482 28.3669 340.67 28.6434L340.742 27.3849C340.657 27.3367 340.57 27.3517 340.489 27.4502ZM447.907 39.8047C447.992 39.3827 448.092 38.8816 448.202 38.3232C447.614 38.2486 446.96 38.1677 446.271 38.0843C446.168 38.6423 446.076 39.1438 445.998 39.5704C446.668 39.6529 447.313 39.7321 447.907 39.8047ZM445.509 39.51C445.594 39.0911 445.694 38.5894 445.805 38.028C445.303 37.9676 444.787 37.9062 444.267 37.8448C444.167 38.3834 444.076 38.881 443.995 39.3221C444.502 39.3853 445.011 39.4484 445.509 39.51ZM443.516 39.2623C443.603 38.8265 443.701 38.3304 443.807 37.7907C443.079 37.7051 442.351 37.6207 441.653 37.54C441.555 38.0723 441.465 38.5612 441.386 38.9929C442.065 39.0799 442.786 39.1708 443.516 39.2623ZM438.761 38.6488C439.362 38.7306 440.096 38.8273 440.906 38.9313C440.991 38.5059 441.087 38.0194 441.192 37.4869C440.402 37.3962 439.664 37.3118 439.02 37.2388C438.926 37.7506 438.839 38.2256 438.761 38.6488ZM440.032 31.7827C439.714 33.4831 439.395 35.2053 439.123 36.6798C439.767 36.7652 440.506 36.8608 441.295 36.9612C441.523 35.793 441.782 34.4507 442.045 33.0813C441.332 32.6791 440.661 32.2431 440.032 31.7827ZM442.461 33.3091C442.453 33.305 442.446 33.3009 442.438 33.2967C442.194 34.6079 441.957 35.8906 441.749 37.019C442.448 37.1078 443.177 37.1991 443.905 37.2898C444.079 36.4012 444.269 35.4168 444.465 34.3988C443.766 34.119 443.1 33.7454 442.461 33.3091ZM444.876 34.5493C444.694 35.5315 444.518 36.4817 444.359 37.3461C444.881 37.411 445.399 37.4749 445.902 37.5369C446.058 36.7381 446.233 35.8412 446.414 34.9003C445.883 34.838 445.371 34.7177 444.876 34.5493ZM447.611 35.1819C447.35 35.1266 447.094 35.065 446.84 35.0005C446.669 35.9229 446.507 36.8028 446.361 37.5934C447.058 37.679 447.715 37.7592 448.299 37.8305C448.317 37.7394 448.335 37.6477 448.353 37.5542C447.898 36.2072 447.611 35.1819 447.611 35.1819ZM448.658 38.4308C448.559 38.9648 448.47 39.4488 448.394 39.8642C448.695 39.9008 448.979 39.9354 449.242 39.9675C449.033 39.4531 448.837 38.9317 448.658 38.4308Z" fill="#181C23"/>
</g>
<path d="M84.279 108.089C74.8344 107.22 67.9764 112.928 65.7399 115.094C65.2242 115.594 64.9542 115.905 64.9542 115.905L65.0955 116.621C65.9739 123.148 55.029 129.77 54.4836 130.096C54.4476 129.998 54.4017 129.906 54.3423 129.821C54.4314 129.541 54.7752 128.473 54.3855 127.637C53.9148 126.629 54.1632 126.365 54.1632 126.365C54.1632 126.365 51.4893 127.02 51.4272 128.594C51.4173 128.849 51.492 129.051 51.6153 129.217C50.9988 129.309 50.376 129.497 49.8423 129.768C49.8378 129.526 49.7541 129.296 49.5534 129.095C48.4662 128.009 46.11 129.488 46.11 129.488C46.11 129.488 46.4637 129.496 46.7931 130.564C47.0721 131.467 48.0612 131.988 48.2844 132.11C48.2835 132.17 48.288 132.228 48.2916 132.287C46.7481 132.448 35.1165 133.468 32.3049 127.892L32.0196 127.226C32.0196 127.226 31.6263 127.14 30.9288 127.053C27.9048 126.675 19.1622 126.276 12 132.793C12 132.793 23.7639 130.339 23.6856 139.839C23.6856 139.839 30.207 133.909 38.0991 141.421C38.0991 141.421 38.6634 134.387 48.4104 132.872C48.7416 133.729 50.0385 133.687 50.421 133.801C52.5495 134.431 52.4361 133.469 53.4936 132.677C54.1299 132.201 54.5358 131.41 54.5691 130.712C63.4899 125.677 67.9665 131.143 67.9665 131.143C70.1589 120.202 78.7548 120.988 78.7548 120.988C73.38 113.344 84.279 108.089 84.279 108.089Z" fill="#181C23"/>
<path fill-rule="evenodd" clip-rule="evenodd" d="M368.845 128.216H361.818C349.808 119.619 355.53 107.733 356.253 106.356L359.057 103.412C359.457 102.99 359.457 102.307 359.057 101.885C358.654 101.464 358.003 101.464 357.602 101.885L354.797 104.83C353.48 105.587 342.153 111.587 333.966 98.9879V0H331.908V98.987C323.723 111.584 312.4 105.588 311.078 104.829L308.273 101.885C307.873 101.463 307.221 101.463 306.82 101.885C306.417 102.305 306.417 102.989 306.82 103.411L309.622 106.355C310.345 107.732 316.067 119.618 304.059 128.215H297.029C296.461 128.215 296 128.696 296 129.292C296 129.889 296.461 130.372 297.029 130.372H304.059C316.067 138.963 310.346 150.853 309.622 152.233L306.82 155.176C306.417 155.597 306.417 156.282 306.82 156.701C307.22 157.122 307.872 157.122 308.273 156.701L311.078 153.759C312.397 153 323.721 146.999 331.908 159.599V166.976C331.908 167.572 332.37 168.055 332.938 168.055C333.505 168.055 333.966 167.572 333.966 166.976V159.6C342.153 146.999 353.479 152.999 354.797 153.759L357.602 156.701C358.003 157.122 358.654 157.122 359.057 156.701C359.457 156.282 359.457 155.597 359.057 155.176L356.253 152.233C355.531 150.851 349.81 138.963 361.818 130.372H368.845C369.415 130.372 369.876 129.889 369.876 129.292C369.876 128.697 369.415 128.216 368.845 128.216ZM313.112 110.014L319.432 116.648C319.905 117.58 322.686 123.704 316.529 128.216H307.441C314.344 122.01 314.228 114.713 313.112 110.014ZM322.466 119.834L330.456 128.216H319.709C322.337 125.384 322.743 122.274 322.466 119.834ZM319.709 130.373H330.456L322.466 138.754C322.743 136.312 322.337 133.203 319.709 130.373ZM307.441 130.373H316.527C322.687 134.882 319.906 141.006 319.432 141.94L313.113 148.574C314.228 143.873 314.344 136.577 307.441 130.373ZM331.907 156.048C325.994 148.804 319.045 148.93 314.565 150.097L320.889 143.465C321.78 142.965 327.613 140.05 331.907 146.511V156.048ZM331.907 143.176C329.211 140.417 326.248 139.991 323.922 140.278L331.907 131.896V143.176ZM331.907 126.688L323.922 118.309C326.25 118.595 329.211 118.171 331.907 115.411V126.688ZM331.907 112.073C327.613 118.534 321.78 115.622 320.889 115.123L314.565 108.489C319.045 109.657 325.994 109.783 331.907 102.54V112.073ZM333.965 102.538C339.878 109.783 346.83 109.657 351.309 108.489L344.989 115.123C344.094 115.622 338.261 118.534 333.965 112.073V102.538ZM343.407 138.754L335.419 130.373H346.166C343.538 133.203 343.134 136.312 343.407 138.754ZM335.419 128.216L343.407 119.834C343.134 122.274 343.538 125.384 346.166 128.216H335.419ZM333.965 115.41C336.661 118.17 339.624 118.595 341.953 118.308L333.965 126.69V115.41ZM333.965 131.897L341.953 140.279C339.624 139.992 336.661 140.418 333.965 143.177V131.897ZM333.965 156.048V146.511C338.261 140.05 344.094 142.965 344.989 143.465L351.309 150.097C346.831 148.93 339.879 148.804 333.965 156.048ZM352.762 148.574L346.44 141.94C345.967 141.007 343.185 134.883 349.346 130.373H358.432C351.53 136.577 351.647 143.873 352.762 148.574ZM349.345 128.216C343.185 123.705 345.968 117.58 346.44 116.648L352.762 110.014C351.647 114.713 351.529 122.01 358.432 128.215L349.345 128.216Z" fill="#6F6CB1"/>
<defs>
<clipPath id="clip0_416_3194">
<rect width="369" height="98" fill="white"/>
</clipPath>
</defs>
</svg>
